<?xml version="1.0" encoding="utf-8"?>
<!-- Generator: Adobe Illustrator 19.2.1, SVG Export Plug-In . SVG Version: 6.00 Build 0)  -->
<svg version="1.1" id="layer" xmlns="http://www.w3.org/2000/svg" xmlns:xlink="http://www.w3.org/1999/xlink" x="0px" y="0px"
	 viewBox="0 0 652 652" style="enable-background:new 0 0 652 652;" xml:space="preserve">
<style type="text/css">
	.st0{fill:#231E21;}
	.st1{fill:#FFFFFF;}
	.st2{fill:#E52629;}
	.st3{fill:#E02227;}
	.st4{fill:#0CA34F;}
	.st5{fill:none;stroke:#FFFFFF;stroke-width:3.0196;}
	.st6{fill:none;stroke:#FFFFFF;stroke-width:2.0441;}
	.st7{fill:#4DB272;}
	.st8{fill:#89C699;}
	.st9{fill:#0EA54F;}
	.st10{fill:none;stroke:#231E21;stroke-width:3.0196;}
	.st11{fill:#B5DABD;}
	.st12{fill:#E2F0E3;}
	.st13{fill:#020203;}
	.st14{fill:none;stroke:#FFFFFF;stroke-width:5.480283e-002;}
</style>
<g>
	<path class="st0" d="M278.6,223.7l-12.3,53.7c45.1-10.3,45.7-8.3,52-8.3l-32.8-47.8L278.6,223.7z"/>
	<polygon class="st1" points="204.8,261.5 211.6,255.9 258,276.2 270,226.3 279.5,223.8 266.9,275.9 253.4,282.3 	"/>
	<polygon class="st1" points="286.4,222.8 316.8,267.5 331.3,268.8 367.8,231.5 360.2,229 324.2,263.7 294.9,221.5 	"/>
	<polygon class="st1" points="375.9,234.8 378.4,288.1 388.1,296.2 439.8,284 434,277.4 386.8,288.1 383.5,238.4 	"/>
	<polygon class="st1" points="445.4,291.1 449.7,298.7 431.7,333 418,342.1 	"/>
	<path class="st2" d="M149.9,310.2c0,0-2.6,4.3-3,6.4c-0.4,2.1-1.7,10.7,3.6,10.5c5.4-0.2,26.4-2,26.4-2l29.9-11.7l-14.1-41.8
		C192.7,271.6,154.6,301.6,149.9,310.2"/>
	<polygon class="st1" points="206.8,313.4 193.4,272.4 199.2,266.5 213.6,309.6 	"/>
	<polygon class="st1" points="148.2,327.6 176.9,325.1 169.5,329.2 	"/>
	<polygon class="st2" points="211.6,255.9 258,276.2 269.9,226.7 269.6,225.6 249.3,231.3 233.8,238.2 219.1,246.8 	"/>
	<path class="st2" d="M294.5,221.2l29.7,42.5l36-35.4c0,0-3.9-1.3-7.7-2.8c-3.9-1.5-19.7-4.1-30.4-4.7c-10.7-0.6-26.1,0-26.1,0
		L294.5,221.2z"/>
	<path class="st2" d="M383.1,236.3l3.7,51.8l48.4-11.3l-13.5-15.9c0,0-19.1-15-19.9-15.6C400.9,244.6,383.1,236.3,383.1,236.3"/>
	<polygon class="st3" points="450,298 433.5,330.1 460.3,315.5 	"/>
	<path class="st4" d="M199.2,266.5l5.6-5.1l48.7,20.8c0,0-25.7,17.2-28.7,22.5l-11.2,4.9L199.2,266.5z"/>
	<path class="st4" d="M368.4,230.6l8.2,3.3l1.7,55.8c0,0-30.4-19-48-20L368.4,230.6z"/>
	<path class="st0" d="M152.6,298.7c0,0-6.5,10.2,1.6,13.8c0,0,8.4,4.9,14.3-7.2c0,0,42.9-84.5,145.5-84.7c0,0,90.2-2.9,139.9,83.8
		c0,0,6.6,19.2,16.6,15.6c10-3.6,3.7-14.4-8-34.6c0,0-51.4-84.1-152.3-81.9C310.1,203.5,206.8,198.9,152.6,298.7"/>
	<path class="st5" d="M157.3,305.8c0,0,48.7-94.4,150.1-93.2c0,0,102.2-9.4,160.5,100.3"/>
	<path class="st1" d="M162.7,305.6c0,2.4-2,4.4-4.4,4.4c-2.4,0-4.4-2-4.4-4.4c0-2.4,2-4.4,4.4-4.4
		C160.7,301.2,162.7,303.2,162.7,305.6"/>
	<path class="st1" d="M170.2,292.4c0,2.4-2,4.4-4.4,4.4c-2.4,0-4.4-2-4.4-4.4c0-2.4,2-4.4,4.4-4.4
		C168.2,288,170.2,289.9,170.2,292.4"/>
	<path class="st1" d="M179.2,279.6c0,2.4-2,4.4-4.4,4.4c-2.4,0-4.4-2-4.4-4.4c0-2.4,2-4.4,4.4-4.4
		C177.2,275.2,179.2,277.2,179.2,279.6"/>
	<path class="st1" d="M188.8,267.7c0,2.4-2,4.4-4.4,4.4c-2.4,0-4.4-2-4.4-4.4s2-4.4,4.4-4.4C186.8,263.3,188.8,265.3,188.8,267.7"/>
	<path class="st1" d="M200.1,257c0,2.4-2,4.4-4.4,4.4c-2.4,0-4.4-2-4.4-4.4c0-2.4,2-4.4,4.4-4.4C198.1,252.5,200.1,254.5,200.1,257"
		/>
	<path class="st1" d="M211.7,247.1c0,2.4-2,4.4-4.4,4.4c-2.4,0-4.4-2-4.4-4.4c0-2.4,2-4.4,4.4-4.4
		C209.8,242.7,211.7,244.7,211.7,247.1"/>
	<path class="st1" d="M224.3,238.3c0,2.4-2,4.4-4.4,4.4c-2.4,0-4.4-2-4.4-4.4c0-2.4,2-4.4,4.4-4.4
		C222.3,233.9,224.3,235.9,224.3,238.3"/>
	<path class="st1" d="M237.7,230.9c0,2.4-2,4.4-4.4,4.4c-2.4,0-4.4-2-4.4-4.4c0-2.4,2-4.4,4.4-4.4
		C235.7,226.5,237.7,228.5,237.7,230.9"/>
	<path class="st1" d="M251.7,224.5c0,2.4-2,4.4-4.4,4.4c-2.4,0-4.4-2-4.4-4.4c0-2.4,2-4.4,4.4-4.4
		C249.8,220.1,251.7,222.1,251.7,224.5"/>
	<path class="st1" d="M266.2,219.7c0,2.4-2,4.4-4.4,4.4c-2.4,0-4.4-2-4.4-4.4c0-2.4,2-4.4,4.4-4.4
		C264.2,215.3,266.2,217.3,266.2,219.7"/>
	<path class="st1" d="M281.3,215.9c0,2.4-2,4.4-4.4,4.4c-2.4,0-4.4-2-4.4-4.4c0-2.4,2-4.4,4.4-4.4
		C279.4,211.5,281.3,213.4,281.3,215.9"/>
	<path class="st1" d="M296.6,213.5c0,2.4-2,4.4-4.4,4.4c-2.4,0-4.4-2-4.4-4.4c0-2.4,2-4.4,4.4-4.4
		C294.7,209.1,296.6,211.1,296.6,213.5"/>
	<path class="st1" d="M311.8,212.6c0,2.4-2,4.4-4.4,4.4c-2.4,0-4.4-2-4.4-4.4c0-2.4,2-4.4,4.4-4.4
		C309.8,208.2,311.8,210.1,311.8,212.6"/>
	<path class="st1" d="M327,213.1c0,2.4-2,4.4-4.4,4.4c-2.4,0-4.4-2-4.4-4.4c0-2.4,2-4.4,4.4-4.4C325,208.7,327,210.6,327,213.1"/>
	<path class="st1" d="M342.6,215.1c0,2.4-2,4.4-4.4,4.4c-2.4,0-4.4-2-4.4-4.4c0-2.4,2-4.4,4.4-4.4
		C340.6,210.7,342.6,212.7,342.6,215.1"/>
	<path class="st1" d="M357.8,218c0,2.4-2,4.4-4.4,4.4c-2.4,0-4.4-2-4.4-4.4c0-2.4,2-4.4,4.4-4.4C355.9,213.6,357.8,215.6,357.8,218"
		/>
	<path class="st1" d="M372.1,222.2c0,2.4-2,4.4-4.4,4.4c-2.4,0-4.4-2-4.4-4.4c0-2.4,2-4.4,4.4-4.4
		C370.1,217.8,372.1,219.8,372.1,222.2"/>
	<path class="st1" d="M386.4,228.1c0,2.4-2,4.4-4.4,4.4c-2.4,0-4.4-2-4.4-4.4c0-2.4,2-4.4,4.4-4.4
		C384.4,223.7,386.4,225.7,386.4,228.1"/>
	<path class="st1" d="M400.5,235.3c0,2.4-2,4.4-4.4,4.4c-2.4,0-4.4-2-4.4-4.4c0-2.4,2-4.4,4.4-4.4
		C398.5,230.9,400.5,232.8,400.5,235.3"/>
	<path class="st1" d="M413.1,243.6c0,2.4-2,4.4-4.4,4.4c-2.4,0-4.4-2-4.4-4.4c0-2.4,2-4.4,4.4-4.4
		C411.2,239.2,413.1,241.2,413.1,243.6"/>
	<path class="st1" d="M425.6,253c0,2.4-2,4.4-4.4,4.4c-2.4,0-4.4-2-4.4-4.4c0-2.4,2-4.4,4.4-4.4C423.6,248.6,425.6,250.6,425.6,253"
		/>
	<path class="st1" d="M436.6,263.3c0,2.4-2,4.4-4.4,4.4c-2.4,0-4.4-2-4.4-4.4c0-2.4,2-4.4,4.4-4.4
		C434.6,258.9,436.6,260.9,436.6,263.3"/>
	<path class="st1" d="M447.2,274.5c0,2.4-2,4.4-4.4,4.4c-2.4,0-4.4-2-4.4-4.4c0-2.4,2-4.4,4.4-4.4
		C445.2,270.1,447.2,272.1,447.2,274.5"/>
	<path class="st1" d="M456.4,286.8c0,2.4-2,4.4-4.4,4.4c-2.4,0-4.4-2-4.4-4.4c0-2.4,2-4.4,4.4-4.4
		C454.5,282.4,456.4,284.3,456.4,286.8"/>
	<path class="st1" d="M464.3,300.2c0,2.4-2,4.4-4.4,4.4c-2.4,0-4.4-2-4.4-4.4c0-2.4,2-4.4,4.4-4.4
		C462.3,295.8,464.3,297.8,464.3,300.2"/>
	<path class="st1" d="M472.3,312.8c0,2.4-2,4.4-4.4,4.4c-2.4,0-4.4-2-4.4-4.4s2-4.4,4.4-4.4C470.3,308.4,472.3,310.4,472.3,312.8"/>
	<path class="st0" d="M205.1,332.6c0,0-4.4,6.9,1,9.4c0,0,5.6,3.4,9.5-4.9c0,0,28.5-57.5,96.6-57.6c0,0,59.9-2,92.9,57
		c0,0,5.8,12.7,11,10.6c6.6-2.7,2.4-9.8-5.3-23.5c0,0-34.1-57.2-101.1-55.7C309.6,267.8,241,264.7,205.1,332.6"/>
	<path class="st6" d="M208.2,337.4c0,0,32.3-65,99.7-64.2c0,0,67.9-6.5,106.6,69.1"/>
	<path class="st1" d="M232.5,308.5c0,1.7-1.3,3-2.9,3c-1.6,0-2.9-1.3-2.9-3c0-1.7,1.3-3,2.9-3C231.2,305.5,232.5,306.8,232.5,308.5"
		/>
	<path class="st1" d="M239.6,301.3c0,1.7-1.3,3-2.9,3c-1.6,0-2.9-1.3-2.9-3c0-1.7,1.3-3,2.9-3C238.3,298.3,239.6,299.7,239.6,301.3"
		/>
	<path class="st1" d="M247.3,295.1c0,1.7-1.3,3-2.9,3c-1.6,0-2.9-1.3-2.9-3c0-1.7,1.3-3,2.9-3C246,292.1,247.3,293.4,247.3,295.1"/>
	<path class="st1" d="M255.7,289.1c0,1.7-1.3,3-2.9,3c-1.6,0-2.9-1.3-2.9-3c0-1.7,1.3-3,2.9-3C254.3,286.1,255.7,287.5,255.7,289.1"
		/>
	<path class="st1" d="M264.3,284.4c0,1.7-1.3,3-2.9,3c-1.6,0-2.9-1.3-2.9-3c0-1.7,1.3-3,2.9-3C263,281.4,264.3,282.8,264.3,284.4"/>
	<path class="st1" d="M273.3,280.4c0,1.7-1.3,3-2.9,3c-1.6,0-2.9-1.3-2.9-3c0-1.7,1.3-3,2.9-3C272,277.4,273.3,278.8,273.3,280.4"/>
	<path class="st1" d="M283.2,277.1c0,1.7-1.3,3-2.9,3c-1.6,0-2.9-1.3-2.9-3c0-1.7,1.3-3,2.9-3C281.9,274.1,283.2,275.5,283.2,277.1"
		/>
	<path class="st1" d="M292.8,274.8c0,1.7-1.3,3-2.9,3c-1.6,0-2.9-1.3-2.9-3c0-1.7,1.3-3,2.9-3C291.5,271.8,292.8,273.2,292.8,274.8"
		/>
	<path class="st1" d="M302.4,273.1c0,1.7-1.3,3-2.9,3c-1.6,0-2.9-1.3-2.9-3c0-1.7,1.3-3,2.9-3C301.1,270.1,302.4,271.4,302.4,273.1"
		/>
	<path class="st1" d="M312.7,272.5c0,1.7-1.3,3-2.9,3c-1.6,0-2.9-1.3-2.9-3c0-1.7,1.3-3,2.9-3C311.4,269.5,312.7,270.9,312.7,272.5"
		/>
	<path class="st1" d="M322.8,272.9c0,1.7-1.3,3-2.9,3c-1.6,0-2.9-1.3-2.9-3c0-1.7,1.3-3,2.9-3C321.4,269.9,322.8,271.2,322.8,272.9"
		/>
	<path class="st1" d="M332.4,274c0,1.7-1.3,3-2.9,3s-2.9-1.3-2.9-3c0-1.7,1.3-3,2.9-3S332.4,272.3,332.4,274"/>
	<path class="st1" d="M342.1,276.1c0,1.7-1.3,3-2.9,3c-1.6,0-2.9-1.3-2.9-3c0-1.7,1.3-3,2.9-3C340.7,273.1,342.1,274.5,342.1,276.1"
		/>
	<path class="st1" d="M352,280c0,1.7-1.3,3-2.9,3c-1.6,0-2.9-1.3-2.9-3c0-1.7,1.3-3,2.9-3C350.7,277,352,278.3,352,280"/>
	<path class="st1" d="M361.1,283.7c0,1.7-1.3,3-2.9,3c-1.6,0-2.9-1.3-2.9-3c0-1.7,1.3-3,2.9-3C359.8,280.7,361.1,282.1,361.1,283.7"
		/>
	<path class="st1" d="M369.5,288.6c0,1.7-1.3,3-2.9,3c-1.6,0-2.9-1.3-2.9-3c0-1.7,1.3-3,2.9-3C368.2,285.6,369.5,287,369.5,288.6"/>
	<path class="st1" d="M377.7,293.7c0,1.7-1.3,3-2.9,3c-1.6,0-2.9-1.3-2.9-3c0-1.7,1.3-3,2.9-3C376.4,290.7,377.7,292.1,377.7,293.7"
		/>
	<path class="st1" d="M393.5,307.3c0,1.7-1.3,3-2.9,3c-1.6,0-2.9-1.3-2.9-3c0-1.7,1.3-3,2.9-3C392.2,304.3,393.5,305.6,393.5,307.3"
		/>
	<path class="st1" d="M386,300.3c0,1.7-1.3,3-2.9,3c-1.6,0-2.9-1.3-2.9-3c0-1.7,1.3-3,2.9-3C384.7,297.3,386,298.6,386,300.3"/>
	<path class="st1" d="M399.9,314.8c0,1.7-1.3,3-2.9,3c-1.6,0-2.9-1.3-2.9-3c0-1.7,1.3-3,2.9-3C398.6,311.8,399.9,313.1,399.9,314.8"
		/>
	<path class="st1" d="M406.2,322.6c0,1.7-1.3,3-2.9,3c-1.6,0-2.9-1.3-2.9-3c0-1.7,1.3-3,2.9-3C404.9,319.6,406.2,320.9,406.2,322.6"
		/>
	<path class="st1" d="M411.5,330.6c0,1.7-1.3,3-2.9,3c-1.6,0-2.9-1.3-2.9-3c0-1.7,1.3-3,2.9-3C410.2,327.6,411.5,328.9,411.5,330.6"
		/>
	<path class="st1" d="M416.2,340.7c0,1.7-1.3,3-2.9,3c-1.6,0-2.9-1.3-2.9-3c0-1.7,1.3-3,2.9-3C414.9,337.6,416.2,339,416.2,340.7"/>
	<path class="st0" d="M384.3,295.5l56-12.2l5.4,5.9l-27.1,50.7c0,0-5.9-9.7-10.5-17.2c-4.6-7.5-16.4-20.6-16.6-21.7
		C391.3,299.9,384.3,295.5,384.3,295.5"/>
	<polygon class="st7" points="124.2,353.1 209.6,319.9 126,356.7 	"/>
	<polygon class="st7" points="130,368.3 157.1,359.3 151.7,365.8 131.3,372 	"/>
	<path class="st7" d="M213.5,343.7c0,0,27-12.7,33.9-15.9c6.9-3.2,19.1-9.5,23.3-12.3l2.9,4.2l1.9-1l5.3,8.5l-2,1.8l-4.8-8.3
		c0,0-30.6,17.2-35.6,17c0,0,33.8-5.7,41-8.6l4.3,7.3l-57.2,12.2L213.5,343.7z"/>
	<polygon class="st7" points="235.7,356.2 264.9,346.2 266,348.6 260.5,354.7 238.2,360.7 	"/>
	<path class="st7" d="M265.9,345.8c0,0,13.9-5.3,23.6-6.2l-0.9,1.7c0,0,16-1.7,19.1-2c3.1-0.3,1.3,1,1.3,1s29-5.9,38.2-10.6
		c0,0-42,19.7-48,20.4l-5.5-4.5l-27.3,2L265.9,345.8z"/>
	<path class="st7" d="M281.1,327.5l0.4,1.9c0,0,34.9-10.2,36.2-6.6c1.3,3.7-9.5,7.1-9.5,7.1l44.1-13l-7.6-12.9L281.1,327.5z"/>
	<path class="st8" d="M224.8,304.8l-63.4,26.9l-20.1,4.7l-17.7,15.9l10,25.6l13.4-3.7l91.3-6.3l21.6-7.3l0.2-5.1l6.8-8.3l26.7-2.1
		l6.4,5.6l1.8,1.4l15.3-4.7l17.3,2l10.8,2.4l8.9,10.2l9.6-2.2l1.4-4.1l24.2-11.8l11,4.5v2.2l11.6-3.5l6.5,10l37.4-12.2l-2.8,4.3
		l13.4,7.3l15.5-5.7l4.5,8.5l3.9-0.6l1.8-0.6c0,0,12.6-12,22.6-13.8c10-1.8,18.3-1.6,20.9-1.2c2.6,0.4,16.7-3,16.7-3l-5.9,6.1
		l8.7,4.3c0,0,9-4.7,13.8-4.1c4.7,0.6,7.9,5.1,10.6,6.3c2.8,1.2,10.8,4.9,24.2,4.9c13.4,0-12.4-0.2-24.6-7.1c0,0-2.2-4.5-6.7-4.9
		c-4.5-0.4-19.3,3.1-19.3,3.1l-4.1-2.4c0,0,14.4-10.2,8.1-10.2c-6.3,0-25.8,5.1-25.8,5.1l-21,2.2c0,0,1-2.2-0.2-3.9
		c-1.2-1.7-3-6-7.8-5.1c-4.3,0.9-4.1,1-24.6,8.2c0,0,5.1-8,5.4-9.3c0.2-1.2,2.4-2.2,0.2-3.9c-2.2-1.7-4.6-4.1-4.6-4.1l-15.8,3.7
		l-7.1-11L424.3,336l-41.9-28.3l-30.2,9.3l-8.8-17.8l-59.2,25.1l-4.5-7l-6.2,1.6l-2.9-3.4l-1.5,0.2l-2.7-3.9l-32.2,15.8l-2.6-12
		L224.8,304.8z"/>
	<polygon class="st9" points="140.4,323.4 146.3,322.6 150.4,331.1 143.9,336.2 213.2,318.1 123.6,352.9 143.1,335.6 143.4,326.9 	
		"/>
	<path class="st9" d="M231.7,315.7l1.6,10.8l-13,3C220.3,329.5,227,319.1,231.7,315.7"/>
	<polygon class="st9" points="125.4,356.5 213.2,318.1 214.2,332.9 259,322 212.2,344.1 129.5,367.7 	"/>
	<path class="st9" d="M238.2,337.4c0,0,32.5-13,35.6-16.1l4.9,7.3C278.7,328.5,265.3,334.4,238.2,337.4"/>
	<path class="st9" d="M279.3,329.1l4.7,6.9c0,0,28.7-4.3,34.6-12.8C321,319.1,279.3,329.1,279.3,329.1"/>
	<polygon class="st9" points="281.1,327.5 285,326.2 279.7,317.3 275.8,318.5 	"/>
	<path class="st9" d="M225.4,349.6l37.4-9.6l2.2,6.3l-30.7,10.6C234.2,356.9,227.3,349.6,225.4,349.6"/>
	<polyline class="st9" points="264.7,343.5 265.9,345.8 279.1,340.9 	"/>
	<line class="st9" x1="279.1" y1="340.9" x2="264.7" y2="343.5"/>
	<polyline class="st10" points="264.4,351.9 296.5,349.6 296.5,357.3 	"/>
	<path class="st9" d="M28.4,348.8v9.2c0,0-8.5,3.9-7.3-1C22.3,352.1,28.4,348.8,28.4,348.8"/>
	<polygon class="st9" points="83.5,338.2 74.5,348 74.5,340.1 	"/>
	<path class="st11" d="M326.5,344.4c0,0,30-14.9,31.4-17c1.5-2.1-3.5,6.2-26.3,17.8l-5.4,0L326.5,344.4z"/>
	<polygon class="st11" points="350.2,340.9 400.9,329.2 403.8,334.8 365.3,355.7 363.5,360.1 362.3,360.1 	"/>
	<path class="st8" d="M352,343.4l46.5-10.9c0,0-26,14.9-30.6,17.8c-4.6,2.9-8.2,6.5-8.2,6.5L352,343.4z"/>
	<path class="st12" d="M364.4,358l-3.4,1.8l-10.8-18.9l50.6-11.7l-1.4-1.8l-50.8,11.7c0,0,11.1,21,11.6,21.1
		c0.5,0.1,2.5,1.1,3.2-0.1C364.1,358.9,364.4,358,364.4,358"/>
	<path class="st12" d="M417.4,346.1l5.8,9.1l1.5,0.4c0,0,35.5-17.2,40.9-22.5l-1.1-2.3h-1c0,0,0.1,0.5-0.5,1
		c-0.6,0.6-19,11.6-19,11.6l-19.8,11L417.4,346.1z"/>
	<path class="st12" d="M419.2,341.6c0,0,40.4-8.7,45.4-10.8c5-2.1,14.3-5.3,14.3-5.3l5.6,5.6c0,0-3.4,7.3-9.6,10.3
		c-6.3,3-18.9,6.5-18.9,6.5l1.3,1.9l9-2l-5.1,4.7l2,1.3l5.9-6.2c0,0,10.5-3.6,16.7-6.2c6.1-2.7,12.7-5.2,15.9-5.9
		c3.1-0.7,3.5-0.7,5.2,0.5c1.7,1.2,3.5,2.9,3.5,3.5c0,0.6,1.9,1.7-1.4,2.4c-3.2,0.7-24.7,5.6-24.7,5.6s1.4,9.4,3.6,10.4
		c2.2,1,2.1,2.5,5.2-0.2c3.1-2.8,15.5-11,19.1-12.7c3.6-1.7,27.7-9.1,36-9.5c8.3-0.4,9.1-0.5,9.1-0.5l3.1,3.9c0,0-5.2,6.4-6.4,6.6
		c-1.2,0.2-5.6,0.9-5.6,0.9s4.3,3.3,4.9,2.6c0.6-0.7,1.5-1,3-1.5c1.5-0.6,3.2-0.9,7.8-1.2c4.5-0.2,7.5-0.1,9.9,1
		c2.4,1.2,2.8,3,8.2,5.2c5.3,2.2,20.4,7.2,38.7,5.2c0,0-10.3,0.5-20.4-2.2c-10.1-2.7-15.4-4.7-19.7-6.9c-4.3-2.2-9-3.8-14.9-3.9
		c-5.9-0.1-7.4-0.1-7.4-0.1l4.2-5.2l-5.4-7.9c0,0-30.5,3.5-44.1,9.3c0,0,0.4-0.8-0.2-2c-0.6-1.2-7.5-6.5-8.1-6.5
		c-0.6,0-19.9,6-23.9,7.5c-4.1,1.5,5.6-4.5,5.7-8.1l-8-8.3c0,0-14.1,4.8-23.2,7.3c-9.1,2.5-33.7,9.3-33.7,9.3L419.2,341.6z"/>
	<path class="st11" d="M262.8,339.9c0,0,38.4-6.3,66.9-15.8c28.5-9.5,52.8-16.5,52.8-16.5l6.6,6.2c0,0-29.6,11-38.7,14.2
		c-9.1,3.3-34.9,11.3-39.3,11.9c-4.4,0.5-2.9-0.9-1.8-1.5c1.1-0.5-15.2,2.6-17.9,2.7c-2.7,0.2-3.3-1.3-1.8-1.7
		c1.5-0.3-22.7,8.6-22.7,8.6l-0.8,0.3l-2.5-5.1L262.8,339.9z"/>
	<polygon class="st7" points="265.6,346.2 287.8,339.6 266.2,348.3 	"/>
	<path class="st8" d="M469.6,347.6c0,0,34.7-10.4,35-10.4c0.3,0,3.3-0.3,3,1.9c-0.4,2.2-0.9,2.7-3.5,3.4c-2.7,0.8-19.7,4.2-19.7,4.2
		l-0.8-1.4L483,345c0,0,2.2,8.4,3.1,10.1c1,1.7,2.5,3.7,2.5,3.7s-1.8,1.7-3.9-3c-2.1-4.8-2.5-5.6-2.5-5.6l-14.3,5.7l-4.7-2.1
		L469.6,347.6z"/>
	<path class="st0" d="M259.9,354.7l7.1-7.6l26.7-2.1l6.4,5.6c0,0,14.5-8.6,31.6-5.5c0,0,34.9,4.6,25.7,50.1c0,0,7.3-43.9-28.5-48
		c0,0-19-1-32.4,9.9v-7.6l-31.4,2.8l-0.3,97.3h31.1l0.3-64.1c0,0,14.5-13.7,27.6-2.8c0,0,2.3,2.6,2.4,8c0.2,5.4,0,59.4,0,59.4
		l25-0.2l-0.2,3.3H348v3.1l-18.4-0.2l-8.3-7.7v-60.2c0,0-1.6-3.7-6-3.9c-4.4-0.2-12.5,2.8-13.2,5.2v58.1l-7.8,8.6h-25.5l-8.6-8
		L259.9,354.7z"/>
	<polygon class="st0" points="28.4,315.2 37,306.9 65.9,306.9 74.5,315.2 74.5,348 116,307.9 125.7,308 143.4,326.9 143.2,334.9 
		97.4,375.8 101.1,382.2 96.7,375.2 142.1,330.6 120.1,309.2 67.9,359.6 67.9,312 33.7,312 33.7,450.2 67.7,450.2 67.7,403.2 
		72,399.1 107.2,449.7 136.4,450.6 136,453.1 130.5,453.5 130.9,456.2 110.8,456.2 102.5,452.6 74.2,410.6 74.2,448 65.6,456.4 
		36.4,456.4 28.5,447.8 	"/>
	<polygon class="st3" points="72.5,394.5 65.1,402.4 65.1,447.8 35.4,447.8 35.4,313.8 65.1,313.8 65.1,366 119.7,311.8 
		138.2,329.8 92.8,374.3 144.8,447.8 108.9,447.9 	"/>
	<path class="st1" d="M119.7,314.8l15.4,15L89.9,374l50.6,71.5l-30.5,0.1L72.7,391l-9.8,10.5v44H37.6V316h25.3v55.3L119.7,314.8z
		 M119.7,308.7l-3.1,3.1l-49.3,49V316v-4.4h-4.4H37.6h-4.4v4.4v129.6v4.4h4.4h25.3h4.4v-4.4v-42.3l4.9-5.2l34.2,50.1l1.3,1.9l2.3,0
		l30.5-0.1l8.4,0l-4.9-6.9l-48.5-68.5l42.5-41.6l3.2-3.1l-3.2-3.1l-15.4-15L119.7,308.7z"/>
	<path class="st3" d="M328.6,447.8v-59.5c0-2.9-1-5.3-3-7.3c-3.8-3.8-8.1-5.7-12.7-5.7c-4.3,0-11.2,1.7-19.8,9.7v62.9h-25.8l0-94
		l25.9-1.7l0.3,9.2l11.7-6.7l0.1,0c5.4-2.5,7.5-3.2,11.7-4l0.4-0.1c1.7-0.3,5.2-1,9.3-1c7.8,0,14.3,2.4,19.3,7.1
		c5.7,5.4,8.7,13.4,8.7,23.6v67.5H328.6z"/>
	<path class="st1" d="M326.6,351.7c5.5,0,12.3,1.3,17.8,6.5c5.6,5.3,8,12.9,8,22v65.3h-21.6v-57.3c0-3.3-1.1-6.4-3.7-8.9
		c-4.7-4.7-9.7-6.4-14.3-6.4c-11.1,0-20.6,9.7-22,10.9v61.7h-21.4l0-89.7l21.5-1.4l0.3,10.6l14.8-8.5c5.4-2.5,7.2-3.1,11.2-3.8
		C318.9,352.5,322.4,351.7,326.6,351.7 M326.6,347.3L326.6,347.3c-4.4,0-8,0.7-9.7,1.1l-0.4,0.1c-4.4,0.8-6.6,1.6-12.2,4.2l-0.2,0.1
		l-0.2,0.1l-8.4,4.8l-0.1-3.3l-0.1-4.5l-4.5,0.3l-21.5,1.4l-4.1,0.3v4.1l0,89.7l0,4.4h4.4h21.4h4.4v-4.4v-59.8
		c7.8-7,13.8-8.5,17.6-8.5c4.1,0,7.7,1.7,11.2,5.1c1.6,1.6,2.4,3.5,2.4,5.8v57.3v4.4h4.4h21.6h4.4v-4.4v-65.3
		c0-10.9-3.1-19.4-9.3-25.2C342.1,349.9,335,347.3,326.6,347.3"/>
	<path class="st3" d="M387.1,475.5l-0.6-4.3c2.2-0.7,6.1-3.3,11.6-12.2c4.4-7,7.4-12.7,9.1-16.9l-38.8-80.7l23.8-11l29.3,66.3
		l31.1-66.6l21.8,11.6l-42,83.4c-4.4,10.7-7.9,18-10.7,22.2c-3,4.5-6.3,7.3-9.8,8.2l-0.3,0.1H387.1z"/>
	<path class="st1" d="M453.6,353l17.9,9.5l-41.1,81.6c-4.3,10.5-7.8,17.8-10.5,21.9c-2.7,4.1-5.5,6.5-8.5,7.3h-24.2
		c3.8-1.1,8.1-5.5,12.9-13.2c4.8-7.7,8-13.7,9.7-18.2l-38.3-79.6l19.7-9.1l30.3,68.7L453.6,353 M451.6,347l-2,4.2l-28.1,60.1
		l-26.4-59.9l-1.8-4.1l-4,1.9l-19.7,9.1l-4,1.9l1.9,4l37.5,77.8c-1.7,4-4.6,9.3-8.6,15.7c-5.6,9.1-9.1,10.9-10.4,11.3l1.2,8.6h24.2
		h0.6l0.5-0.1c4.1-1,7.8-4.1,11.1-9.1c2.8-4.3,6.4-11.7,10.9-22.5l41-81.4l1.9-3.8l-3.8-2l-17.9-9.5L451.6,347z"/>
	<path class="st0" d="M365.1,355.1l24.4-11.6l10.5,3.6l22.6,57.8l4.5-6.7l-5.6,11.8l-28.6-62.8l-27.7,13.4l39.7,81.1
		c0,0-10.3,25.9-25.2,31.7l-0.4-4.9c0,0,7.8-1.1,20.8-25.5L362,365.8L365.1,355.1z"/>
	<path class="st0" d="M474.6,366.5c0,0-44.4,92.9-49.3,99.6c-4.9,6.7-6.9,11.6-21.2,11.8c-14.3,0.2-23.7,0.4-23.7,0.4l0.9,5.6
		c0,0,27.2,1.8,34.6-1.8c7.4-3.6,9.8-2.4,21.7-25.4c12-23,41.5-84.6,41.5-84.6l-2.4-1.1l1.1-2.5L474.6,366.5z"/>
	<path class="st0" d="M577.3,425.8l5.8-3.1c0,0-2.2-2.2-1.8-9.7c0.4-7.5,0-58.5,0-58.5s-4.7-11-12.4-9.1c-7.7,1.8-14.3,3.8-14.3,3.8
		s-15.4-10.2-31.1-7.3c-15.7,2.9-45.7,12.6-47.2,61.6c2,47,37.8,54.6,58.5,49.9c0,0,10.4-4.4,14.1-8.4c0,0,8.2,8.4,15.9,9l21-19
		l-21.9,17l-14.6-10.6c0,0-15.2,7.5-25,6.6c-9.9-0.9-24.1-2.7-31.1-14.6c-6.9-11.9-13.7-30.1-9.3-46.2c4.4-16.1,17-33.3,27.8-35.1
		c10.8-1.8,24.1-0.9,29.8,0.7c5.7,1.6,11.5,5.1,13,4.6c1.5-0.5,8.4-2.9,10.4-3.3c2-0.4,4.8,0,5.3,0.5c0.5,0.5,3.1,3.7,3.1,3.7
		s-1.1,57.2-0.2,60.9C574,422.7,577.3,425.8,577.3,425.8"/>
	<path class="st3" d="M561.7,449.5c-3.4-1.1-5.7-2.8-7.7-5.6c-1.3-1.9-2.4-4.4-3.2-6.7c-3.9,2.9-11.6,8-20,10.5
		c-0.9,0.3-3.1,0.3-3.8,0.3c-4.9,0-21.6-0.9-31.8-12.9c-8.3-9.8-12.2-21-12.2-35.1c0-14.4,4.3-26.5,12.8-35.9
		c8.5-9.5,19.5-14.3,32.7-14.3c5.3,0,10.4,1.1,15,3.2c3.8,1.7,6.5,3.3,8.3,4.8l16.4-5.7l4.7,3.3v58c0,5,0.5,8.2,1.6,11
		c1,2.5,3.2,5.6,6.2,6.9l3.4,1.4l-21.4,17.2L561.7,449.5z M530.5,371.2c-6,0-10.9,2-14.8,6.2c-3.9,4.2-5.9,11.4-5.9,21.4
		c0,7.9,1.9,14.4,5.6,19c3.6,4.6,8.7,6.9,15.3,6.9c3.9,0,7.6-0.6,11-1.8c3.1-1.1,4.9-1.9,5.9-2.5v-42.2c-1.7-1.9-3.9-3.5-6.5-4.9
		C538.2,371.9,534.7,371.2,530.5,371.2"/>
	<path class="st1" d="M528.6,352c5,0,9.7,1,14.1,3c4.4,2,7.2,3.8,8.6,5.3l16.6-5.7l2.9,2v56.9c0,5,0.5,8.7,1.8,11.8
		c1.2,2.8,3.7,6.5,7.4,8l-17.6,14.2c-3-1-4.9-2.4-6.5-4.8c-1.8-2.6-3.2-6.4-3.9-9.2c0,0-10.4,8.8-21.7,12.1
		c-0.3,0.1-1.4,0.2-3.1,0.2c-6.5,0-21.2-1.6-30.1-12.1c-7.4-8.7-11.7-19-11.7-33.7c0-13.9,4.1-25.4,12.2-34.4
		C505.6,356.5,515.9,352,528.6,352 M530.7,426.9c4.2,0,8.1-0.6,11.7-1.9c3.7-1.2,6.1-2.4,7.3-3.4v-44.1c-2-2.3-4.5-4.4-7.7-6
		c-3.2-1.7-7-2.5-11.6-2.5c-6.6,0-12.1,2.3-16.4,6.9c-4.3,4.6-6.5,12.3-6.5,22.9c0,8.5,2,15.3,6.1,20.4
		C517.7,424.4,523.4,426.9,530.7,426.9 M528.6,347.6c-13.8,0-25.4,5-34.4,15c-8.8,9.8-13.3,22.4-13.3,37.4
		c0,14.6,4.1,26.3,12.8,36.5c10.8,12.7,28.3,13.7,33.5,13.7c1.4,0,3.3-0.1,4.4-0.4c7.2-2.1,14-6.1,18.3-9.2c0.7,1.5,1.5,3.1,2.4,4.5
		c2.2,3.2,4.8,5.2,8.8,6.5l2.3,0.7l1.9-1.5l17.6-14.2l5.7-4.6l-6.8-2.8c-2.4-1-4.2-3.7-5-5.7c-1-2.4-1.4-5.5-1.4-10.1v-56.9v-2.3
		l-1.9-1.3l-2.9-2l-1.8-1.3l-2.1,0.7l-14.2,4.9c-1.9-1.4-4.4-2.8-7.8-4.3C539.5,348.7,534.2,347.6,528.6,347.6 M530.7,422.6
		c-6,0-10.4-2-13.6-6c-3.4-4.3-5.1-10.2-5.1-17.7c0-9.5,1.8-16.2,5.3-19.9c3.5-3.7,7.8-5.5,13.2-5.5c3.8,0,7,0.7,9.5,2
		c2.1,1.1,3.9,2.4,5.4,3.9v40c-0.9,0.4-2.3,1-4.4,1.7C537.8,422,534.4,422.6,530.7,422.6"/>
	<path class="st0" d="M544.9,411.5l0.4-32.2c0,0-8.4-8.6-17.9-5.8c0,0-17.5,2.2-15,27.8c0,0-0.7,28.9,28.3,19.4l-1.5-4.4
		c0,0-15.9,5.7-19.2-7.7c-3.3-13.3-1.6-29.4,11.7-29.1c0,0,8.4,0.2,9.3,4C542,387.4,544.9,411.5,544.9,411.5"/>
	<path class="st13" d="M192.5,236c0.3,0.4,0.3,0.6,0.1,0.8c-0.2-0.1-0.4-0.2-0.6-0.3c-0.2-0.1-0.5-0.1-0.8,0.1
		c0,0.3,0.1,0.5,0.2,0.5c-0.2,0-0.5,0-1,0.1c0.1,0.5,0.1,1,0,1.5c-0.1,0.5-0.3,1.1-0.5,1.6c0-0.2-0.1-0.6-0.3-1.2
		c-0.2,0-0.4,0.1-0.8,0.4c0.4-0.4,0.5-0.8,0.2-1.1c-0.6-0.7-1.4-1.2-2.3-1.4c-0.9-0.2-1.5-0.2-2,0.1c0.8-0.6,1.2-1,1.2-1
		c-0.1-0.1-0.4-0.5-0.9-1.2c-0.3-0.5-0.7-0.9-1-0.9c0,0-0.2,0-0.4,0.1c-0.1,0.2-0.2,0.6-0.1,1c0.1,0.5,0.2,0.8,0.4,1
		c0,0.1,0.1,0.1,0.2,0.2c-1-0.5-1.9-1.3-2.8-2.2c-0.8-0.8-1.4-1.3-1.9-1.5c0.4-0.5,0.5-0.9,0.3-1.4c-0.3,0.2-0.8,0.4-1.5,0.7
		c-0.2-0.2-0.2-0.4-0.2-0.7c0-0.3-0.1-0.6-0.2-0.8c0,0-0.8-0.3-2.4-1.1c-1.6-0.7-2.8-1.6-3.5-2.6c-0.3-0.3-0.5-0.6-0.6-1
		c-0.5,0-1.4-0.3-2.5-1.1c-1-0.7-1.6-0.9-1.8-0.8c-0.2,0.2-0.3,0.4-0.4,0.8c-0.2-0.2-0.4-0.4-0.7-0.4c0.3,0.9,0.5,1.4,0.7,1.6
		c0.2,0.3,0.6,0.3,1.3,0.2c0.1,0.4,0.1,1.1,0.1,2c0,0.5,0.1,1.1,0.5,1.7c0.3-0.1,0.5-0.2,0.6-0.3l1.3,1.6c0.2,0.2,0.4,1,0.7,2.3
		c0.3,1.3,0.5,2.1,0.7,2.2l0.4-1.2c0.1,0.1,0.4,0.2,0.8,0.5c0.4,0.2,0.6,0.4,0.7,0.5c0.3,0.4,0.6,1.6,0.8,3.5
		c0.2,0.3,0.6,0.3,1.2,0.2c0.3,0.5,0.7,1.3,1.2,2.4c-0.1-0.1-0.3-0.2-0.8-0.5c-0.1,0.2-0.1,0.5-0.1,1c0,0.4,0,0.7,0.1,0.8
		c0,0,0.5,0.4,1.5,1.4c0.9,0.9,1.5,1.6,1.9,2.1c-0.7-0.5-1.3-0.7-1.9-0.8l-0.5,0.5c0.4-0.1,0.7,0,1,0.4c0.1,0.1,0.2,0.4,0.3,0.8
		c0.2,0.5,0.2,0.8,0.3,0.9c-0.2,0-0.5,0.1-1.1,0.2c-0.6,0.1-0.9,0.3-1,0.4c-0.1,0.1-0.2,0.2-0.2,0.3c0,0.1-0.1,0.2-0.2,0.3
		c-0.2,0.2-0.9,0.3-2,0.4l-0.7,0.7c0.1,0.1,0.4,0.2,0.9,0.3c0.5,0.1,0.8,0.2,1.1,0.3c0,0,0.1-0.1,0.1-0.2c0-0.1,0.1-0.2,0.1-0.3
		c0.2-0.2,0.7-0.3,1.5-0.4l-0.6,0c-0.3,0.8-0.3,1.4-0.1,1.7l-0.7,0.5c-0.2,0.1-0.4,0.2-0.8,0.3c-0.4,0.1-0.6,0.1-0.8,0
		c0,0.1,0.1,0.3,0.1,0.6l-1.3,1c-0.2-0.2-0.5-0.4-0.9-0.5c-0.4-0.1-0.8-0.1-1.1,0c-0.1-0.2-0.4-0.5-0.7-0.9
		c-0.3-0.3-0.7-0.7-1.3-1.2c-0.1-0.1-0.5-0.2-1.1-0.3c-0.6-0.1-1-0.2-1.2-0.3c-0.4-0.2-0.5-0.5-0.5-1c-0.1,0-0.3,0.1-0.5,0.3
		c-0.3-0.4-1.3-1-3-2.1c-1.7-1-2.9-2-3.6-2.8c-0.4-0.5-0.7-1-0.9-1.6c-0.7-0.1-1.5-0.5-2.4-1.2c-1.2-0.9-1.9-1.5-2.1-1.6
		c-0.9-0.5-1.8-0.5-2.7-0.1c0,0.2,0.2,0.8,0.4,1.8c0.2,0.8,0.2,1.2,0,1.3c-0.1,0.1-0.3,0.1-0.5,0.1c-0.2,0-0.4,0.1-0.5,0.1
		c-0.4,0.3-0.4,0.8,0.2,1.5c0.3,0.3,0.9,0.7,2,1c0.1-0.2,0-0.5-0.3-0.8c-0.5-0.6-0.8-0.8-0.7-0.7c0-0.4,0.1-0.6,0.2-0.7
		c1.3,0.5,2.1,0.9,2.2,1.1c0.1,0.2,0.2,0.7,0.1,1.5l0.6,0.1c0.1-0.1,0.1-0.3,0.1-0.7c0-0.4-0.1-0.7-0.3-0.9c0.2,0.2,1,1.1,2.4,2.8
		c-0.3,0.2-0.6,0.5-1.1,0.9c1.2,1,1.9,1.5,2,1.6c0.9,1.2,1.7,2.4,2.3,3.8c0,0-0.1,0.1-0.3,0.2c-0.2,0.1-0.3,0.2-0.4,0.3
		c-0.4,0.3-0.4,0.6-0.1,1c-0.2-0.3-0.5-0.5-0.8-0.7c0,0.1,0.1,0.3,0.4,0.6c0.5,0.6,1,0.8,1.6,0.7c0.6-0.1,1,0,1.2,0.3
		c0.1,0.2,0.3,0.4,0.4,0.8l0.9,0.1c0.1-0.2,0.2-0.7,0.2-1.5c0.9,2.5,1.2,3.8,1,4c-0.1,0.1-0.2,0.1-0.3,0.1c-0.1,0-0.2,0-0.3,0.1
		c-0.3,0.2-0.4,0.5-0.2,0.7c-0.3,0-1-0.2-2.1-0.6c0,0.1,0,0.2-0.1,0.2c0,0.1,0,0.2,0,0.3c0,0,0.1,0.1,0.2,0.2
		c0.1,0.1,0.3,0.2,0.3,0.3c0.4,0.5,0.3,1-0.4,1.4c-0.2-0.2-0.6-0.4-1.2-0.4c0,0.3,0,0.5,0,0.6c0,0.1-0.3,0.4-0.7,0.8
		c-0.1-0.2-0.3-0.7-0.4-1.3c-0.1,0-0.2,0.1-0.4,0.2c-0.1,0.1-0.2,0.3-0.3,0.6c-0.1,0.4-0.2,0.7-0.2,0.7c-0.8-0.8-1.7-2-2.9-3.9
		c0.1-0.1,0.4-0.1,0.7-0.1c0.1-0.4,0.1-0.7-0.1-0.9c-0.1-0.2-0.4-0.2-0.8-0.1c0-0.3-0.3-0.8-0.7-1.6c-0.4-0.6-0.4-1.1-0.2-1.4
		c-1.2-0.6-2.1-1.2-2.6-1.9c-0.3-0.3-0.4-0.5-0.4-0.6c-0.1-0.3,0-1.1,0.1-2.5l-1.7-0.2l-0.5-0.6c0.4-0.4,0.4-0.8,0-1.3
		c-0.2-0.3-0.5-0.5-0.9-0.8c-0.4-0.2-0.6-0.4-0.6-0.3c-0.4-0.5-0.7-1.3-0.8-2.4c-0.1-0.9-0.2-1.9-0.3-2.8c-0.6-0.4-1.1-0.9-1.5-1.5
		c-1-1.2-1.4-2.4-1.3-3.4c0.4-0.2,1.1-0.2,2,0c0.1-0.4,0.1-0.8-0.1-1.1c-0.1-0.1-0.4-0.2-0.8-0.4c-0.4-0.2-0.8-0.2-1.2-0.2
		c0.1-0.3,0.1-0.8,0.1-1.4c0,0,0.2,0.2,0.6,0.6c0.2,0.2,0.5,0.3,0.9,0.3c0.2-0.4,0.2-1,0-1.8l0.6,0.7c0.3,0.4,0.6,0.4,0.9,0.2
		c0.5-0.4,0.8-0.8,1-1.2c-0.2-0.1-0.6-0.3-1.1-0.5c0.7,0,1.7,0.2,2.9,0.4c0.1-0.3,0.2-0.5,0.1-0.6c-0.1-0.1-0.2-0.1-0.3-0.1
		c0.2-0.1,0.5-0.2,0.9-0.3c-0.1-0.4-0.3-0.6-0.7-0.8c0.1,0,0.4,0,0.7-0.1c0.4-0.1,0.6-0.1,0.7-0.1c0,0,0.1,0.4,0.3,1.1
		c0,0.1,0.2,0.2,0.3,0.2c0.2,0.1,0.3,0,0.5-0.1c0.3-0.2,0.4-0.5,0.4-1c0-0.4-0.1-0.8-0.3-1.2c0.6,0.2,1.2,0.4,1.7,0.6
		c0.8,0.3,1.3,0.6,1.5,0.9c0.1,0.2,0.4,1.1,1,2.8c-0.3-0.3-0.5-0.8-0.6-1.2c-0.1,0-0.3,0-0.9,0.1c0.1,0.8,0.2,1.3,0.4,1.6l1.1,1.4
		c0.3-0.1,0.6-0.2,0.8-0.4c0.5-0.1,0.8-0.1,1,0.2l0.5,0.6l-1,0.2c-0.4,0.5-0.4,1.1,0.1,1.6c0.2,0.2,0.4,0.3,0.8,0.4
		c0.1-0.2,0.1-0.7,0-1.6c0.6-0.1,1.4,0,2.4,0.3c-0.1,0.1-0.3,0.2-0.6,0.4c-0.3,0.2-0.5,0.3-0.6,0.4c-0.3,0.2-0.2,0.5,0.1,0.9
		c0.2,0.2,0.5,0.4,0.9,0.4c0.4,0,0.7,0,1-0.3l0.5,0.6c-0.2,0.5-0.3,1.1-0.2,1.7c1.9,0,2.9,0.1,3.1,0.3c0.2,0.2,0.3,0.6,0.5,1.1
		c0.1,0.6,0.1,1.1,0,1.4c0.4,0.1,1,0,1.7-0.3c0,0.4,0.3,1,0.9,1.7c-0.7-0.4-1.1-0.5-1.2-0.4c-0.1,0.1-0.2,0.3-0.2,0.7
		c0.9,0.5,1.7,0.6,2.2,0.4l0.6-0.5c-0.2-0.3-0.5-0.8-0.9-1.4c0.4,0,0.6,0.2,0.8,0.4c0.1,0.1,0.2,0.3,0.4,0.6
		c0.1,0.3,0.3,0.5,0.4,0.6c0.2,0.3,0.5,0.4,0.9,0.5c0.2-0.3,0.2-0.7,0.1-1.2c-0.1-0.5-0.3-0.8-0.5-1c1.2,1.5,1.7,3.2,1.4,5
		c0.4,0.2,0.7,0.2,1,0c0.2-0.2,0.3-0.5,0.3-0.8c-0.1-0.3-0.1-0.7-0.2-1.1c0.2,0.3,0.6,0.6,1.1,1c0,0,0.1,0,0.2-0.1
		c0.1,0,0.3-0.1,0.4-0.2c0.5-0.4,0.1-1.5-1.1-3.2c-1.5-2.1-2.3-3.4-2.4-4c-0.4-0.5-0.7-1.2-0.9-2c-0.2-0.8-0.4-1.3-0.5-1.4
		c-0.1-0.2-0.3-0.2-0.6-0.2c-0.3-0.5-0.7-1.2-1.2-2.2c-0.5-1.2-1.2-2.8-2.3-4.7c-1-1.8-1.7-3.2-2.1-4.2c-0.1-0.5-0.8-1.7-2.2-3.6
		c-1.2-1.6-1.6-2.7-1.3-3.2c-0.4,0-0.7,0-0.9-0.1c-0.3-0.1-0.6-0.3-0.9-0.5c0.1,0.1,0.1,0.2,0.2,0.3c0.1,0.1,0.5,0,1-0.1
		c0-0.3-0.1-0.7-0.4-1.1c0.3,0.1,0.6,0.2,0.9,0.2c0.4,0.1,0.7,0.1,0.8,0c0,0,0.2-0.4,0.5-1.1l0.7,0.9c-0.2,0.2-0.5,0.5-0.8,1.1
		c0.6,0.2,1.6,0.4,3,0.4c0-0.4-0.2-0.6-0.3-0.8c-0.1-0.1-0.2-0.2-0.4-0.4c-0.2-0.2-0.3-0.3-0.4-0.4c-0.1-0.1-0.2-0.2-0.2-0.3
		c0.6,0.3,1.3,0.5,2.2,0.8c0.5-0.6,0.5-1,0.3-1.4c-0.2-0.3-0.6-0.5-1.2-0.8c0.3,0,0.5,0,0.7-0.2c0.1-0.1,0.2-0.2,0.3-0.3
		c0.1-0.2,0.3-0.3,0.5-0.5c0,0.1,0.1,0.3,0.1,0.6c0.5-0.2,1.9,0.1,4.1,1.1c2.2,1,3.6,1.8,4.1,2.5l0.5,0.6c-0.2,0.4-0.3,0.7-0.1,0.9
		c0.1,0.1,0.3,0.2,0.5,0.4c0.3,0.1,0.4,0.3,0.5,0.3c0.1,0.1,0.1,0.6,0,1.4c0.3,0,1.1,0.1,2.3,0.5c-0.2,0.2-0.4,0.3-0.5,0.3
		c-0.1,0.4,0,0.6,0.1,0.8c0.1,0.1,0.4,0.3,1,0.5c0.6,0.3,1,0.5,1.2,0.6c-0.1,0.2-0.3,0.5-0.6,0.9c0.4-0.1,0.8-0.3,1.4-0.6l0.6-0.5
		c0-0.2,0-0.3-0.2-0.5c0.2,0.2,0.4,0.5,0.5,0.7c0.3,0.4,0.3,0.7,0.3,0.9c0.2,0,0.4,0,0.6-0.1c0.3-0.1,0.5-0.1,0.5,0
		c0.2,0.3,0.3,0.7,0.3,1.1c0,0.5-0.1,0.8-0.3,1.1c0.6,0.1,1.3,0.3,1.9,0.4c1.2,0.3,1.9,0.5,2.2,0.9c0.1,0.1,0.1,0.5,0.1,1.1
		c0,0.6,0,1,0.1,1.1c0.4,0.5,0.8,0.6,1.2,0.3c0.1-0.1,0.3-0.2,0.3-0.4c0.1-0.1,0.1-0.2,0.2-0.2c0.5,0.8,1.3,1.6,2.4,2.3
		C191.9,235.6,192.5,236,192.5,236 M147.2,240l-0.7-0.5c0,0.5,0.1,1,0.3,1.3C147,240.7,147.2,240.5,147.2,240 M149.1,235
		c-0.6,0.1-1,0.2-1.2,0.4c0.9,1.2,1.5,1.8,1.6,1.9c-0.2-0.4-0.4-0.7-0.6-1.1C148.7,235.6,148.8,235.2,149.1,235 M150.2,239.7
		l-1.3-1.7c0,0.3,0.1,0.6,0.1,0.9c0.1,0.4,0.1,0.7,0.2,0.8C149.4,240,149.8,240,150.2,239.7 M155,250.4l-0.7-0.9
		c-0.1-0.1-0.3-0.2-0.4-0.1c-0.2,0-0.3,0.1-0.3,0.2c-0.1,0.1-0.1,0.2,0,0.2C154,250.1,154.4,250.3,155,250.4 M156.2,259.3
		c-0.1,0.2,0,0.6,0.2,1.2c0.2,0.7,0.3,1.1,0.5,1.2c0.1,0.2,0.3,0.3,0.4,0.3c0.2,0,0.2,0.1,0.3,0.1
		C157.3,261.5,156.8,260.6,156.2,259.3 M158.1,254.3l-1.8-2.2c-0.1,0-0.1,0.2-0.1,0.5c0,0.3,0,0.5,0.1,0.5
		C156.8,253.7,157.4,254.1,158.1,254.3 M162.2,259.3c-0.2-0.2-0.4-0.3-0.9-0.3c0.1,0.1,0.2,0.2,0.3,0.5c0.1,0.2,0.3,0.4,0.4,0.5
		C162.1,259.9,162.1,259.7,162.2,259.3 M164.6,240.6c-0.1,0.1-0.4,0.1-0.7,0.1c-0.3,0-0.6-0.1-0.7-0.2c-0.2-0.3-0.3-0.6-0.3-1
		c0.1,0.1,0.4,0.3,0.8,0.6C164.2,240.4,164.4,240.5,164.6,240.6 M168.9,244.1c-0.9-0.1-1.6,0-2,0.2c0.2-0.6,0.4-0.9,0.6-1.1
		C167.5,243.2,168,243.6,168.9,244.1 M169.4,226.6c0.1,0.1,0.2,0.5,0.3,0.9c0.1,0.5,0.1,0.8,0.3,1c0.2,0.2,0.5,0.4,0.9,0.4
		c-0.1,0-0.2,0.2-0.3,0.6c-0.4,0.1-0.9-0.1-1.2-0.5C169,228.5,169,227.7,169.4,226.6 M175.3,241.1c-0.3,0-0.6-0.1-0.7-0.3
		c-0.2,0.1-0.1,0.5,0.2,1c0,0,0.1-0.1,0.3-0.3C175.1,241.2,175.2,241.1,175.3,241.1 M178.3,242.4l-0.6,0.5c-0.5-0.3-0.6-0.6-0.6-1.1
		C177.1,241.8,177.5,242,178.3,242.4"/>
	<path class="st13" d="M238.2,215.5c0,0.1,0,0.4,0,0.8c-0.1,0.4-0.1,0.7,0,0.9c0-0.1-0.2-0.2-0.4-0.5c-0.2-0.3-0.3-0.4-0.4-0.6
		c-0.1,0-0.3,0-0.4,0.1c-0.1,0.1-0.3,0.4-0.4,1c-0.1,0.6-0.2,0.9-0.4,1c-0.2,0.1-1.8-1.2-4.9-3.7c-3.4-2.8-5.5-4.4-6.3-4.8
		c-0.3,0.1-1.1,0.3-2.5,0.7c-1.4,0.3-2.1,0.5-2.1,0.5c-0.1,0.1-0.3,0.2-0.4,0.4c-0.1,0.2-0.3,0.3-0.4,0.4c-0.1,0.1-0.3,0-0.4-0.1
		c-0.1-0.1-0.3-0.2-0.4-0.1c-0.7,0.4-0.9,1.3-0.5,2.8c0.2,0.9,0.5,1.7,0.8,2.4c-0.6-0.5-1-0.8-1-0.9l0.4-0.6c-1-0.8-1.6-1.3-1.7-1.5
		c0-0.1,0-0.3,0.1-0.5c0.1-0.2,0.1-0.4,0-0.5c0,0-0.1-0.1-0.1-0.2c-0.4,0.3-0.5,1.1-0.2,2.4c0.2,1,0.6,1.9,0.9,2.6
		c0.1,0.1,0.3,0.3,0.7,0.5c0.4,0.2,0.7,0.4,0.7,0.5c0.1,0.2,0.2,1,0.2,2.4c0,1.3,0,2-0.1,2.1c0-0.1-0.1-0.2-0.3-0.3
		c-0.2-0.1-0.4-0.1-0.5,0c-0.1,0.1-0.3,0.3-0.5,0.6c-0.2,0.4-0.3,0.6-0.4,0.6c-0.9,0.4-1.5,0.8-1.8,1.1c0,0-0.3-0.2-0.7-0.5
		c-0.3-0.2-0.5-0.4-0.6-0.5c-0.1-0.2-0.1-0.5,0.1-0.7c-0.9-0.5-1.4-0.8-1.5-1c-0.1-0.2-0.1-0.6-0.1-1.1c0.1-0.5,0.2-0.8,0.4-0.8
		c0.1-0.1,0.3,0,0.6,0.1c0.2-0.3,0.2-0.6,0-0.9c-0.1-0.2-0.3-0.4-0.7-0.7c-0.4-0.3-0.6-0.5-0.7-0.6c-0.2-0.3-0.3-1.1-0.4-2.2
		c-0.1-1.2,0-1.9,0.2-2.2c-0.8-0.4-1.3-0.7-1.4-0.9c-0.1-0.2-0.1-0.5-0.1-0.7c-0.7-0.2-1.1-0.5-1.5-0.7c0.2-0.6,0.4-1.1,0.6-1.7
		c0.4-1.1,0.5-1.8,0.3-2c0,0,0.1,0,0.3,0c0.2,0,0.3-0.1,0.5-0.1c0.2-0.1,0.3-0.4,0.5-0.8c0-0.2-0.1-0.4-0.2-0.6
		c-0.3-0.6-1.1-1.5-2.3-2.5c0.1,0,0.2-0.1,0.4-0.1c0.2,0,0.3-0.1,0.4-0.1c0-0.1-0.1-0.4-0.4-1c-0.2-0.4-0.1-0.7,0.3-1.1
		c-0.7-0.3-1.1-0.4-1.5-0.2c-0.1-0.1-0.1-0.4-0.2-0.9c-0.1-0.5-0.1-0.7,0-0.7c0,0,0.1,0,0.1,0.1c0.1,0.1,0.2,0.1,0.5,0
		c0.7-0.9,1-1.4,1-1.6c0-0.1-0.1-0.2-0.2-0.3c-0.2,0-0.5,0.3-0.9,0.9c-0.3-1.2-0.7-2.2-1-2.9c0.1,0,0.3,0.2,0.4,0.5
		c0.1,0.3,0.3,0.4,0.5,0.5c0.4-0.4,0.4-0.8,0.2-1.3c-0.4-0.9-0.9-1.8-1.6-2.7c-0.2-0.1-0.4-0.1-0.6,0c-0.1-0.2-0.1-0.9,0.2-2.2
		c0.2-1.3,0.6-2.1,1-2.3c0,0,1,0,3.1-0.1c0.8,0.5,1.4,1.1,1.7,1.7c0.1,0.3,0.3,0.6,0.3,1.1c0.1,0.4,0.2,0.7,0.2,0.8
		c0.1,0.1,0.2,0.2,0.3,0.3c1,0.1,2,0.9,2.9,2.6c0.9,1.7,1.8,2.5,2.6,2.6c0.2,0.6,0.3,0.9,0.3,0.8c0.2,0.5,0.9,1.4,1.9,2.7
		c1,1.3,1.7,2.1,2.1,2.4c0,0,0.3-0.3,0.6-0.7l0.4,0.9c0.1,0.2,0.1,0.4,0,0.6c-0.1,0.2-0.2,0.5-0.3,0.7l1.5,0.1
		c0.8,0,1.4,0.2,1.8,0.6c0.3-0.1,0.4-0.5,0.4-1c0.2,0.2,0.7,0.5,1.3,0.7c0.6,0.2,1,0.4,1.1,0.5c0,0.1,0.1,0.1,0.1,0.2
		c-0.1,0-0.4-0.1-0.9-0.3c-0.5-0.2-0.8-0.3-0.9-0.2c-0.1,0.1-0.2,0.2-0.3,0.4c-0.1,0.2-0.1,0.3-0.2,0.4c0.1,0.2,0.5,0.5,1.2,0.9
		c-0.1,0.4-0.3,0.6-0.4,0.7c0-0.1-0.2-0.3-0.7-0.7c-0.2,0.1-0.3,0.3-0.1,0.6c0.2,0.3,0.4,0.5,0.8,0.5c0.4,0,0.7,0.1,0.8,0.3
		c0.1,0.3,0.4,0.7,0.7,1.2c0.3-0.1,0.4-0.2,0.5-0.4c0.1-0.1,0.1-0.3-0.1-0.5c0.3,0.9,1.6,2,4,3.5
		C236.6,213.8,237.9,214.8,238.2,215.5 M210.3,200.1c-0.5-0.2-0.8-0.3-1-0.2l0.5,1C210,200.7,210.2,200.5,210.3,200.1 M212.3,197.6
		l-0.5-1.1c-0.3,1-0.4,1.7-0.2,2.3C211.6,198.5,211.8,198.1,212.3,197.6 M212,208c-0.1,0.2-0.2,0.5-0.3,0.8c-0.1,0.4-0.1,0.6,0,0.8
		c0.1,0.1,0.2,0.3,0.4,0.4c0.2,0.1,0.3,0.2,0.3,0.2C212.3,209.7,212.2,209,212,208 M212.9,203.9l-0.3-0.7c-0.2-0.1-0.4-0.1-0.7,0.1
		c0.1,0.3,0.2,0.6,0.3,1L212.9,203.9z M213.4,215.9c-0.3-0.6-0.6-0.9-1-1.1c0,0.1,0,0.2-0.1,0.4c0,0.1,0,0.3,0,0.4
		C212.5,216,212.9,216.1,213.4,215.9 M221,206.8l-1-2c0,0-1.9-1.8-5.5-5.4c-0.3,0.4-0.4,1.1-0.1,2c0.3-0.2,0.6-0.2,0.9-0.1l0.3,0.6
		c-0.2,0.3-0.6,0.7-1,1.2c0.3-0.2,0.6-0.2,1.2,0c-0.2,0.2-0.4,0.7-0.7,1.3c0.6,0.2,1,0.4,1,0.5c-0.2,0.5-0.4,0.8-0.5,0.9l0.7,0.3
		c0,0-0.1,0.2-0.2,0.6c-0.1,0.2-0.1,0.4,0,0.5c0.3,0.7,0.9,0.9,1.7,0.6C219.3,207.1,220.4,206.8,221,206.8 M215.2,212.6
		c-0.1-0.3-0.4-0.3-0.9-0.1l0.3,0.6L215.2,212.6z M219.1,199.3c-0.3-0.3-0.7-0.7-1.1-1.1c-0.4-0.4-0.7-0.7-0.8-0.8c0,0,0,0.1,0,0.3
		c0,0.2,0,0.3,0.1,0.5c0.1,0.1,0.3,0.3,0.8,0.6C218.4,199.2,218.8,199.3,219.1,199.3"/>
	<path class="st13" d="M285.1,184.6c-0.3,0.3-0.7,0.7-1.3,1.1c0-0.1-0.2-0.4-0.5-0.8c-0.2,0.2-0.6,0.6-1,1.1c0.3,0.4,0.5,0.7,0.6,1
		c-0.2,0-0.3,0-0.5,0c-0.4,0.1-0.7,0.3-0.9,0.8c-0.2,0.4-0.3,0.8-0.2,1.3c0.1,0.4,0.4,0.8,1,1.5l0.3,2.4l-0.5-1.3c0,0-0.1,0-0.1-0.1
		c-0.1,0-0.2,0-0.4,0c-0.2,0-0.4,0.2-0.6,0.4c-0.2,0.2-0.2,0.4-0.2,0.6c0.1,0.2,0.6,0.9,1.6,1.9l-1.1,0.1c0,0.1,0,0.3-0.2,0.5
		c0.3,0.2,0.5,0.3,0.6,0.2c-0.6,0.5-0.8,1-0.7,1.5c0,0.1,0,0.2,0.1,0.3c0.1,0.1,0.1,0.2,0.1,0.3c0.1,0.2,0,0.5-0.1,0.7
		c0-0.2,0-0.6,0-1c-0.1,0-0.2-0.1-0.3-0.2c-0.2-0.1-0.3-0.1-0.3-0.2c-0.3,0.3-0.5,0.7-0.6,1.1c-0.1,0.4-0.1,0.8-0.1,1.2
		c-1.1,0.9-1.9,1.6-2.3,2.1c-0.1-0.1-0.2-0.2-0.3-0.3c-0.1-0.2-0.2-0.3-0.2-0.3c-0.3,0.4-0.5,0.9-0.8,1.6c-0.2,0-0.4,0-0.6-0.2
		c-0.4-0.2-0.6-0.3-0.6-0.3c-0.4,0.2-0.6,0.6-0.6,1.2c-1.3,0.1-2.4,0.2-3.3,0.4c-0.1,0-0.3,0.1-0.5,0.3c-0.2,0.2-0.4,0.3-0.5,0.3
		c-2.7,0.6-5.5-0.3-8.4-2.6c-2.7-2.2-4.5-4.7-5.3-7.7l0.6-1.1c-0.1-0.3-0.3-0.4-0.7-0.2l-0.6-2.1c0.3,0.1,0.6,0,0.8-0.3
		c0,0-0.2-0.2-0.6-0.5c-0.3-0.3-0.4-0.5-0.4-0.6c0,0,0.4-0.6,1-1.6c0.7-1,0.9-2,0.7-2.9c0-0.2-0.4-0.4-1.2-0.6c0,0,0.2-0.1,0.4-0.2
		c0.3-0.1,0.5-0.2,0.7-0.3c0.1,0.3,0.3,0.5,0.6,0.6c0-0.2,0-0.4-0.1-0.5c0-0.2-0.1-0.3-0.3-0.5c-0.1-0.2-0.2-0.3-0.2-0.5l-0.2-0.8
		c0.2,0.1,0.4,0.3,0.7,0.6c0.2-0.5,0.3-1.1,0.3-1.8c0.9,0.7,1.5,1.3,1.8,2c0.4,0,0.5-0.2,0.4-0.5c0-0.1-0.2-0.4-0.6-0.9
		c-0.3-0.4-0.5-0.7-0.6-0.9c0-0.2,0-0.5,0.2-0.9c0.2-0.4,0.4-0.6,0.6-0.6c0.1,0,0.3,0.1,0.6,0.3c0.1-0.2,0.2-0.5,0.1-0.9
		c-0.2-0.7-0.6-1.1-1.4-1.1l-0.4-1.7c0.1,0,0.3,0.1,0.6,0.2c0.1-0.1,0.2-0.3,0.4-0.5c0.2-0.3,0.3-0.5,0.5-0.5
		c-0.2,0.3-0.1,0.5,0.3,0.6c0.1-0.2,0.1-0.5,0-1c-0.3-1.2-0.7-1.8-1.2-2c0.5,0.1,0.9,0,1.3-0.4c-0.1,0.8-0.1,1.4,0,1.8
		c0.1,0.4,0.2,0.6,0.5,0.6c0.6-0.3,0.8-0.9,0.6-1.8c0-0.2-0.2-0.5-0.6-1.1c-0.3-0.6-0.5-1-0.6-1.3c0,0,0.1,0.3,0.3,0.8
		c0.1,0.3,0.4,0.5,0.7,0.6c0.5-0.4,0.7-0.8,0.5-1.4c0-0.2-0.1-0.4-0.3-0.5c0.2,0.2,0.4,0.3,0.5,0.2c0.1,0,0.3-0.1,0.5-0.3
		c0.2-0.2,0.4-0.3,0.6-0.3c0.1,0.4,0.3,0.8,0.5,1l1.2-0.3c0-0.2-0.1-0.4-0.3-0.7c-0.2-0.3-0.3-0.5-0.3-0.6c-0.1-0.3,0-0.5,0.1-0.8
		c0.1,0,0.3,0.2,0.7,0.5c0.4,0.3,0.6,0.4,0.8,0.4c0,0,0.4-0.2,1.5-0.7c0.4,0.5,0.5,1,0.4,1.5c0,0.1,0.2,0.2,0.5,0.5
		c0.2-0.2,0.5-0.4,0.8-0.8c-0.4-0.5-0.5-0.9-0.4-1.1c0.2,0,0.8,0.4,1.8,1.1c0.1-0.2,0.3-0.4,0.6-0.7c0.3,0.2,0.5,0.5,0.6,0.8
		c0.1,0.6-0.2,1.3-1.1,2.1c-0.9,0.8-1.2,1.6-1,2.4c0,0.2,0.1,0.4,0.2,0.6c-0.3-0.3-0.5-0.8-0.6-1.5c-0.3,0.1-0.6,0.1-0.9,0
		c0,0,0,0.2,0,0.6c0,0.3,0.1,0.5,0.2,0.7c0-0.1-0.1-0.3-0.3-0.6c-0.1-0.3-0.3-0.6-0.3-0.9c0.1,0,0.2-0.1,0.3-0.2
		c0.1-0.1,0.3-0.2,0.5-0.2c0.1,0,0.3,0,0.4,0.1c0.1,0.1,0.2,0.1,0.3,0c-0.6-0.6-1.2-0.9-1.7-0.8c-0.2,0-0.4,0.5-0.7,1.3
		c-0.3,0.8-0.6,1.2-0.7,1.3c-0.2,0-0.3,0-0.4,0c-0.1,0-0.2-0.1-0.2-0.1c0.2,1.5-0.2,3.5-1,5.9c-0.7,1.8-1.4,3.6-2.1,5.4
		c0.4,0.3,0.7,0.3,1.1,0.3c-0.1,1.1-0.3,1.7-0.5,1.7c-0.1,0-0.3,0-0.4,0c-0.1,0-0.2,0-0.2,0c0,0-0.1,0.1,0,0.2
		c0.2,1.1,0.7,2.2,1.5,3.5c-0.2-0.1-0.3-0.1-0.4-0.1c-0.1,0-0.3,0.3-0.5,0.7c-0.2,0.4-0.5,0.8-0.8,1c0.4-0.1,1.2,0.8,2.3,2.5
		c1,1.6,1.6,2.5,1.7,2.8c0,0.2,0,0.3,0,0.5c0,0.1-0.1,0.2-0.1,0.2c-0.2,0.1-0.6-0.3-1-1c-0.6-1-1.1-1.7-1.5-2.1
		c-0.1,0.2-0.2,0.4-0.1,0.6c0.1,0.6,0.5,1,1.1,1.4c0,0.6,0.3,1.2,0.9,1.9c0.6,0.7,1.1,1,1.5,0.9c0.1,0,0.3-0.2,0.4-0.5
		c0.4,0.4,1.1,0.7,2.1,1c0.9,0.2,1.7,0.2,2.5,0l1.5-0.3c1.7-0.4,3-1.5,3.9-3.2c0.8-1.6,1-3.2,0.6-4.9c-0.1-0.4-0.5-1.1-1.1-2.1
		c-0.7-1.2-1.2-1.7-1.6-1.8c0.1,0.5,0.3,0.8,0.5,0.9l-0.5,0.7c-0.1-0.1-0.6-0.1-1.4-0.1c-0.8,0-1.3,0-1.4,0.1
		c-0.3,0.1-0.6,0.2-1,0.6c-0.1-0.2-0.2-0.4-0.5-0.6c-0.3,0.2-0.9,0.6-2.1,1.2l-0.5-1.2c-0.2-0.1-0.8,0.1-2,0.5
		c0.2-0.3,0.3-0.8,0.2-1.4c0,0,0.2,0,0.4,0c0.2,0,0.4,0,0.5,0c0.1,0,0.2-0.4,0.6-1.1c0.3-0.7,0.7-1.1,1.3-1.2c0.1,0,0.2,0,0.3,0
		c0,0,0.1,0,0.3,0c0.1,0,0.3-0.2,0.5-0.4c0.3-0.2,0.5-0.4,0.6-0.4c0.2,0,0.3,0,0.4,0.1c0.1,0.1,0.2,0.1,0.4,0.1
		c0.4-0.1,0.5-0.5,0.3-1.3c0.3,0,0.8,0.3,1.6,0.9c0.1-0.2,0.2-0.4,0.2-0.8c0-0.2,0.2-0.4,0.6-0.4c0.1,0,0.3,0,0.6,0.2
		c0.4,0.2,0.8,0.4,1,0.5c0-0.3,0.2-0.7,0.5-1.1c0.2,0.1,0.2,0.5,0.1,1.2c0,0,0.1,0,0.2,0c0.1,0,0.2,0,0.4,0c0.1,0,0.2-0.1,0.3-0.3
		c0.1-0.2,0.4-0.4,0.8-0.5c0.6-0.3,1.6-0.6,2.9-1c0.3,0.5,0.9,0.8,1.7,1C284.2,184.2,284.8,184.4,285.1,184.6 M258.4,191.3
		c-0.2,0-0.6-0.2-1.3-0.3l0.3,1.2c0.1,0,0.2,0,0.2,0C257.9,192,258.2,191.8,258.4,191.3 M258.3,178.4c0,0,0,0.3-0.2,0.9
		c0.1-0.1,0.1-0.3,0.1-0.5c-0.1-0.4-0.4-0.9-1-1.7c0,0,0.1-0.1,0.1-0.1C257.8,177,258.1,177.4,258.3,178.4 M261.6,187.6
		c-0.3-0.2-0.6-0.3-0.7-0.3c0.1,0.5,0.3,0.9,0.4,1c0.1,0,0.1-0.1,0.2-0.3C261.6,187.8,261.6,187.7,261.6,187.6 M263.1,171.1
		l-0.2-0.8c-0.1-0.1-0.4-0.1-0.8,0C262.2,170.4,262.5,170.7,263.1,171.1"/>
	<path class="st13" d="M322.5,173.3c0,0.2-0.1,0.8-0.3,1.6c-0.2,0.8-0.3,1.4-0.3,1.8c0,0.2,0,0.4,0.1,0.5c-0.3,0.1-0.8,0.4-1.4,0.9
		c0,0.4,0.1,0.6,0.6,0.6c0.2,0,0.5-0.1,0.9-0.3c0,0.7,0,1.7,0,3.1c-0.4,0.2-0.7,0.5-0.9,1c-0.1,0.3-0.3,0.7-0.4,1.1
		c-0.2-0.6-0.5-1.2-1-1.8c-0.4,0.2-0.6,0.4-0.6,0.7c0,0.1,0.1,0.4,0.3,0.9c0.2,0.5,0.3,0.8,0.3,1.1c0,0.2-0.1,0.5-0.2,0.7
		c0.6,0.7,1,1.2,1.2,1.5c0.5,0.7,0.8,1.4,0.8,2c0-0.4-0.1-0.7-0.3-0.9c-0.9,0.7-1.4,1.5-1.3,2.4c0.1,0,0.3,0.2,0.8,0.5
		c0.4,0.2,0.6,0.5,0.5,0.8c0,0.2-0.2,0.5-0.5,0.7c-0.4,0.3-0.7,0.6-0.9,0.9c-0.3,0.5-0.5,1.3-0.5,2.4l0,1.2
		c-0.4-0.2-0.7-0.2-0.7,0.1c0,0.1,0.1,0.5,0.4,1c0.3,0.5,0.4,0.8,0.4,1c0,0.2-0.3,0.8-0.8,1.6c-0.3-0.1-0.6-0.3-1.1-0.6
		c-0.3-0.2-0.5-0.3-0.7-0.3c-0.3,0-0.5,0.2-0.7,0.5c-0.1-0.1-0.2-0.3-0.5-0.7c-0.2-0.4-0.5-0.7-0.6-0.9c0.3,0,0.5,0,0.6,0.1
		c0.3-0.1,0.5-0.1,0.5-0.2c0-0.5,0.1-1.1,0.3-1.8c0,0-0.1,0-0.3-0.1c-0.2,0-0.3-0.1-0.4-0.1c-0.2,0.3-0.4,0.6-0.4,0.9
		c-0.4-0.8-0.9-1.6-1.3-2.4c-0.8-1.7-1.2-3.1-1.2-4l0-5.4c0-0.1,0.2-0.4,0.5-0.9c0.3-0.4,0.5-0.8,0.6-0.9c-0.2-0.1-0.4-0.4-0.6-0.8
		c-0.2-0.6-0.3-0.9-0.4-1.1c0.1-0.1,0.4-0.2,1-0.3c0-0.3,0-0.9,0.1-1.6c0-0.8,0.1-1.4,0.1-1.8c0-1.3-0.1-2.5-0.4-3.6
		c0,0-0.1-0.1-0.3-0.3c-0.2-0.2-0.3-0.4-0.3-0.5c0-0.2,0.2-0.6,0.5-1.1c0.3-0.6,0.5-1,0.5-1.1c0-0.5-0.4-0.9-1.3-1
		c-0.2-1-0.3-2-0.3-2.8c0-0.4,0-0.8,0.1-1.3c0.1-0.5,0.1-0.8,0.1-0.9c0-0.6-0.3-1.3-0.8-2c0.1-0.2,0-0.5-0.1-1
		c-0.1-0.4-0.2-0.7-0.1-0.9c0-0.4,0.1-0.6,0.4-0.8c0,0.4,0,1,0.1,1.8c0.1,0.1,0.1,0.1,0.2,0.1c0.2,0,0.5-0.2,0.8-0.7
		c0.3-0.5,0.6-0.9,0.9-1.4c0.3,0.7,0.6,1.1,0.9,1.1c0.1,0,0.4-0.1,0.9-0.3c0.5-0.2,0.8-0.3,0.9-0.3c0.1,0,0.3,0.1,0.4,0.3
		c0.2,0.2,0.3,0.3,0.4,0.3c0.1,0,0.3-0.1,0.4-0.2c0.1-0.1,0.3-0.2,0.4-0.2c0.4,0,0.8,0.2,1.1,0.5c0.6,0.7,0.9,1.1,0.9,1.2
		c-0.1,0.1-0.2,0.2-0.3,0.2c-0.1,0.1-0.2,0.1-0.3,0.2c0,0.6,0.1,0.9,0.5,0.9l1.2-0.1c-0.2,0.1-0.4,0.4-0.4,0.7c0,0.5,0,0.8,0,0.9
		c-0.1,0.3-0.2,0.6-0.2,0.8c0,0.3,0.1,0.7,0.3,1.1c0.2,0.4,0.3,0.7,0.3,0.9c0,0.3-0.1,0.5-0.4,0.7c-0.4,0.2-0.7,0.4-0.7,0.4l0,0.9
		c0,0,0,0.1,0,0.2c0,0.1,0.1,0.1,0.3,0.1c0.2,0,0.6-0.2,1.2-0.7c0,1,0.1,1.8,0.3,2.4C322.4,173,322.5,173.2,322.5,173.3 M321.8,174
		l0-0.9l-0.9-0.5C321.1,173.3,321.4,173.7,321.8,174"/>
	<path class="st13" d="M380.2,206.4c-0.2,0.6-0.7,1.3-1.6,2c-1,0.7-1.6,1.3-1.8,1.8c-0.1-0.1-0.2-0.3-0.4-0.7
		c-0.1-0.4-0.2-0.6-0.3-0.6c-0.2-0.1-0.6,0-1.1,0.2c-0.5,0.2-0.8,0.5-1,0.8l-0.7-0.2l-0.2-0.4c-0.7,0.4-1.1,0.6-1.4,0.5
		c-0.2-0.1-0.4-0.2-0.6-0.5c-0.2,0.1-0.4,0.4-0.6,0.9c-0.2-0.3-0.6-0.7-1.1-1.3c-1,0.3-1.6,0.5-1.7,0.4c-0.2-0.1-0.8-0.4-1.8-1
		c-1.1-0.7-1.8-1.2-1.9-1.4c-0.5,0.2-0.8,0.6-0.9,1.1c-0.1-0.7-0.6-1.4-1.3-2c-0.6-0.6-1.3-0.9-2.1-1.2c0-0.1-0.2-0.6-0.5-1.5
		c-0.2-0.6-0.4-0.9-0.5-1c-0.1,0-0.4,0-0.9,0c-0.5,0-0.9,0-1,0c-0.1,0-0.7-0.6-1.7-1.7c-1.1-1.1-1.7-1.7-1.9-1.7
		c0.3-0.5,0.3-1.1,0.1-1.9c-0.2-0.6-0.3-1.3-0.5-2c-0.4-0.1-0.8,0-0.9,0.5c0,0.1-0.1,0.4-0.2,0.8c0,0.3-0.1,0.6-0.2,0.7
		c-0.1-0.2-0.2-0.6-0.2-1.2c0-0.6-0.1-1-0.2-1.3c0-0.1,0.3-0.3,0.9-0.7c-0.2-0.3-0.7-0.5-1.4-0.8c0.1-0.3,0.3-0.8,0.6-1.4
		c0.3-0.6,0.5-1,0.5-1.1c0.1-0.3,0-0.9-0.3-1.7c0.2-0.6,0.2-1.2,0-1.9c0-0.2,0-0.3,0.1-0.5c0-0.1,0.1-0.3,0.3-0.5
		c0.1-0.2,0.2-0.4,0.2-0.5c0.1-0.2,0-0.4-0.1-0.7c-0.8,0.1-1.3,0.5-1.5,1c0,0.1-0.1,0.3,0,0.4c0-0.1,0-0.3,0.1-0.4
		c0.1-0.3,0.3-0.7,0.7-1c0.4-0.4,0.6-0.7,0.7-0.9c0-0.1,0-0.2,0-0.4c0.1,0.1,0.2,0.1,0.3,0.1c0.3,0.1,0.5-0.2,0.8-0.7
		c0.4-0.7,0.9-1.2,1.5-1.5l0.3-0.8c-0.1-0.2-0.3-0.4-0.4-0.4c-0.1,0-0.3-0.1-0.4-0.1h-0.2c0.5-0.4,1.1-0.8,1.6-1.3
		c0.8-0.6,1.2-1.2,1.3-1.7c-0.1,0.4-0.2,0.9-0.3,1.3c-0.1,0.6,0.2,1.1,0.9,1.3c1-1.3,1.5-2.1,1.7-2.6c0.1-0.3,0.1-0.6,0.2-0.8
		c-0.1,0.2-0.1,0.7,0,1.2c0.2,0.6,0.4,0.9,0.8,1.1c0.3,0.1,0.7-0.2,1.3-0.8c0.4-0.5,0.7-0.9,0.7-1.1c0-0.1,0-0.3-0.1-0.5
		c-0.2-0.3-0.3-0.5-0.3-0.5c0.3,0.1,0.6,0.4,0.8,1c0.5-0.1,1-0.4,1.5-0.9c0.3-0.4,0.6-0.8,0.9-1.2c-0.1,0.3-0.2,1-0.2,2
		c0.5,0.1,0.8-0.3,1-1.2c0.7,0.3,1.3,0.2,1.8-0.2c0.8-0.6,1.4-0.9,1.8-0.9c0,0.1,0,0.3,0.1,0.6c0.1,0,0.5-0.2,1-0.7
		c0.6-0.4,0.9-0.6,1.1-0.6c0.1,0,0.3,0.2,0.6,0.4c0.2,0.3,0.4,0.4,0.5,0.4c0.3-0.3,0.7-0.7,1.3-1.3c-0.2,0.6-0.3,1-0.3,1.2
		c0,0,0.1,0,0.1,0.1c0,0.1,0.1,0.1,0.3,0.2c0.2,0.1,0.5-0.1,0.8-0.5c0.3,0.6,0.5,0.9,0.6,0.9c0.1,0,0.5-0.1,1.3-0.5
		c0.8-0.3,1.4-0.5,1.9-0.6c0.1,0.4,0,1,0,1.9l0.9-0.5c0,0.4,0.3,0.7,0.8,0.8c0.2,0.1,0.4,0,0.5,0c0.1,0.2,0.1,0.4,0.1,0.6
		c0,0.2-0.5,0.7-1.4,1.7c0.3,0.3,0.7,0.4,1.1,0.3c-0.1,0.1-0.6,0.5-1.6,1c-0.1,0-0.2-0.2-0.4-0.4c-0.1-0.2-0.3-0.4-0.4-0.4
		c-0.1,0-0.3,0-0.5,0.1c-0.2,0.1-0.4,0.2-0.5,0.1c-0.1,0-0.5-0.3-1.1-0.8c-0.6-0.5-1-0.8-1.1-0.8c-1.2-0.4-2.9-0.4-5.1-0.1
		c-2.4,0.4-4.4,1-6.1,1.9c-2,1.1-3.2,2.4-3.4,4c-0.1-0.1-0.2-0.2-0.5-0.3c-0.4-0.1-0.7,0.1-1,0.6c-1.3,2.8-2.2,4.7-2.6,5.9
		c-0.2,0.6,0.1,2,0.9,4.4c0.8,2.5,1.4,3.7,2,3.7c0.1,0,0.3,0.2,0.7,0.8c0.3,0.6,0.6,0.9,0.8,1.1c1.3,0.9,2.1,2,2.4,3.2
		c0.2,0.1,0.5-0.1,0.8-0.5c3.5,2.6,5.3,3.9,5.5,4c0.1,0,0.3,0,0.7-0.2c0.4-0.1,0.6-0.2,0.7-0.1c0.2,0.2,0.4,0.3,0.7,0.4
		c0.9,0.3,2,0.2,3.3-0.3c1.2-0.5,2-1.2,2.3-2.1c0.1-0.3,0.1-0.6,0.1-0.9c0.1,0.2,0.2,0.3,0.5,0.4c0.2,0.1,0.7-0.1,1.3-0.7
		c0.4-0.3,0.7-0.7,1.1-1C380.6,203.6,380.6,205.1,380.2,206.4 M379,204.7c-0.1,0-0.3,0.1-0.4,0.2c-0.2,0.1-0.3,0.2-0.3,0.4
		c-0.1,0.3,0,0.6,0.3,0.7C378.9,205.5,379,205.1,379,204.7"/>
	<path class="st13" d="M419.7,234.9c-0.1,0.1-0.3,0.3-0.7,0.4c-0.4,0.2-0.6,0.4-0.8,0.5c0-0.1,0.1-0.3,0.2-0.6
		c0.1-0.3,0.2-0.5,0.2-0.7c0-0.1-0.1-0.2-0.3-0.3c-0.1-0.1-0.5,0-1,0.3c-0.5,0.2-0.9,0.3-1,0.3c-0.2-0.1-0.1-2.1,0.1-6.2
		c0.3-4.4,0.3-7,0.2-7.9c-0.3-0.2-0.9-0.7-2-1.6c-1.1-0.9-1.6-1.4-1.7-1.4c-0.1-0.1-0.3-0.1-0.6-0.1c-0.3,0-0.4,0-0.5-0.1
		c-0.1-0.1-0.2-0.2-0.1-0.4c0-0.2,0-0.3-0.1-0.4c-0.7-0.4-1.6,0-2.6,1.2c-0.6,0.7-1.1,1.4-1.5,2.1c0-0.8,0.1-1.2,0.1-1.3l0.7,0
		c0.1-1.3,0.1-2.1,0.2-2.3c0.1-0.1,0.2-0.2,0.4-0.3c0.2-0.1,0.4-0.2,0.5-0.3c0,0,0-0.1,0.1-0.2c-0.5-0.2-1.1,0.2-2,1.3
		c-0.7,0.8-1.2,1.5-1.6,2.3c-0.1,0.1-0.1,0.4,0,0.9c0.1,0.5,0.1,0.8,0,0.9c-0.1,0.2-0.7,0.7-1.9,1.6c-1,0.8-1.6,1.1-1.7,1.2
		c0.1-0.1,0.1-0.2,0.1-0.4c0-0.2-0.1-0.4-0.3-0.5c-0.1-0.1-0.4-0.1-0.8,0c-0.4,0.1-0.6,0.1-0.8,0c-0.9-0.5-1.5-0.7-1.9-0.9
		c0-0.1,0-0.3,0.1-0.8c0-0.4,0-0.6,0.1-0.8c0.1-0.2,0.3-0.3,0.6-0.3c-0.1-1-0.2-1.6-0.1-1.8c0.1-0.2,0.4-0.5,0.8-0.7
		c0.4-0.2,0.7-0.3,0.9-0.2c0.1,0.1,0.2,0.2,0.3,0.5c0.3,0,0.6-0.2,0.8-0.5c0.1-0.1,0.1-0.5,0.1-0.9c0-0.5,0-0.8,0.1-0.9
		c0.2-0.3,0.7-0.9,1.6-1.6c0.9-0.8,1.5-1.1,1.8-1.1c-0.1-0.9-0.1-1.5,0-1.7c0.1-0.2,0.3-0.4,0.6-0.5c-0.2-0.7-0.3-1.2-0.3-1.6
		c0.6-0.1,1.2-0.3,1.7-0.5c1.1-0.3,1.7-0.6,1.8-1c0,0,0.1,0.1,0.2,0.2c0.1,0.1,0.2,0.2,0.4,0.3c0.2,0.1,0.5,0.1,0.9-0.1
		c0.1-0.1,0.3-0.3,0.3-0.5c0.3-0.6,0.6-1.7,0.7-3.3c0.1,0,0.2,0.1,0.3,0.2c0.1,0.1,0.2,0.2,0.3,0.2c0.1-0.1,0.3-0.4,0.6-0.9
		c0.2-0.4,0.5-0.5,1.1-0.4c-0.2-0.7-0.4-1.1-0.7-1.3c0.1-0.1,0.3-0.4,0.6-0.7c0.3-0.3,0.5-0.5,0.6-0.5c0,0,0,0.1,0,0.2
		c0,0.1,0.1,0.2,0.3,0.4c1.2,0.1,1.8,0,1.9-0.2c0-0.1,0.1-0.2,0.1-0.3c-0.1-0.2-0.6-0.2-1.2-0.2c0.8-1,1.4-1.8,1.7-2.5
		c0.1,0.1,0,0.3-0.1,0.6c-0.1,0.3-0.2,0.5-0.1,0.7c0.5,0,0.9-0.2,1.2-0.6c0.4-0.8,0.9-1.8,1.3-2.9c0-0.3-0.1-0.4-0.4-0.5
		c0-0.2,0.7-0.6,1.9-1.1c1.2-0.6,2-0.7,2.5-0.5c0,0,0.6,0.8,1.9,2.4c0.1,0.9,0,1.7-0.4,2.4c-0.2,0.3-0.4,0.6-0.7,0.9
		c-0.3,0.3-0.5,0.5-0.5,0.6c-0.1,0.1-0.1,0.3-0.1,0.4c0.6,0.9,0.4,2.2-0.4,3.9c-0.8,1.7-1,2.9-0.6,3.6c-0.4,0.6-0.5,0.8-0.5,0.7
		c-0.3,0.5-0.6,1.5-1.1,3.1c-0.5,1.6-0.7,2.6-0.7,3.1c0,0,0.4,0,0.9,0.1l-0.5,0.9c-0.1,0.2-0.2,0.3-0.5,0.4
		c-0.3,0.1-0.5,0.1-0.7,0.2l0.8,1.3c0.4,0.7,0.6,1.3,0.6,1.8c0.3,0.2,0.6,0.1,1.1-0.3c-0.1,0.3,0,0.8,0.2,1.4c0.2,0.6,0.3,1,0.2,1.2
		c0,0.1-0.1,0.1-0.1,0.2c0-0.1-0.1-0.4-0.3-0.9c-0.1-0.5-0.3-0.8-0.4-0.9c-0.1-0.1-0.3-0.1-0.5,0c-0.2,0.1-0.4,0.1-0.5,0.1
		c-0.1,0.2-0.1,0.7,0,1.6c-0.4,0.1-0.6,0.1-0.8,0c0.1-0.1,0.1-0.4,0.1-0.9c-0.2-0.2-0.4-0.1-0.6,0.2c-0.2,0.3-0.1,0.6,0.1,1
		c0.2,0.4,0.3,0.6,0.2,0.8c-0.1,0.3-0.3,0.7-0.6,1.2c0.2,0.2,0.4,0.2,0.6,0.2c0.2,0,0.3-0.1,0.4-0.4c-0.5,0.8-0.7,2.5-0.5,5.3
		C420.1,232.6,420.1,234.3,419.7,234.9 M404.9,215c0.3-0.6,0.4-1,0.3-1.4c-0.1,0-0.2,0.1-0.4,0.1c-0.2,0-0.3,0.1-0.3,0.3
		C404.2,214.4,404.4,214.7,404.9,215 M408.6,214.6c0.2-0.3,0-0.6-0.5-0.8l-0.3,0.6L408.6,214.6z M410.4,209.3
		c-0.2,0-0.5,0.1-0.9,0.2c-0.3,0.1-0.5,0.3-0.6,0.5c-0.1,0.1-0.1,0.3-0.1,0.5c0,0.2,0,0.3,0,0.4C409.2,210.5,409.8,210,410.4,209.3
		 M416.7,215.8l1.1-2c0,0,0.4-2.6,1.1-7.6c-0.6,0-1.1,0.4-1.7,1.1c0.4,0.2,0.6,0.4,0.6,0.6l-0.3,0.6c-0.4,0-0.9-0.1-1.5-0.1
		c0.3,0.1,0.5,0.4,0.7,0.9c-0.3,0-0.8,0-1.5,0.2c0.2,0.7,0.3,1,0.2,1.1c-0.5,0.1-0.8,0.2-1,0.1l0.2,0.7c0,0-0.2,0-0.6,0.2
		c-0.2,0-0.3,0.1-0.4,0.3c-0.4,0.7-0.2,1.3,0.5,1.8C415.4,214.7,416.3,215.4,416.7,215.8 M414.3,207.6l0.4-0.7
		c0-0.2-0.2-0.4-0.4-0.5c-0.1,0.3-0.4,0.5-0.7,0.8L414.3,207.6z M415.8,203.2c-0.1-0.5-0.3-0.8-0.4-0.9l-0.5,0.9
		C415.1,203.4,415.5,203.4,415.8,203.2 M419,203.4l0.6-1.1c-1,0.3-1.6,0.7-2,1.1C417.9,203.4,418.4,203.3,419,203.4 M421.6,209.9
		c0.1-0.4,0.1-0.9,0.2-1.5c0.1-0.6,0.1-1,0.2-1.1c0,0-0.1,0.1-0.2,0.2c-0.1,0.1-0.3,0.2-0.3,0.3c-0.1,0.1-0.1,0.4-0.1,1
		C421.4,209.3,421.4,209.7,421.6,209.9"/>
	<path class="st13" d="M463.1,252.1c0,0.1-0.2,0.2-0.5,0.4c-0.3,0.2-0.5,0.4-0.7,0.7c-0.1,0-0.3-0.1-0.6-0.3
		c-0.3-0.1-0.6-0.3-0.8-0.5c-0.4,0.5-0.6,0.8-0.6,0.8c-1.2-0.6-2-1-2.5-1.3c-0.1-0.1-0.2-0.2-0.4-0.5c-0.2-0.3-0.3-0.4-0.4-0.5
		c-1-0.8-2.3-1.1-3.8-1.1c0.2-0.6,0.1-1.1-0.3-1.3c-0.4-0.3-0.8-0.2-1.2,0.4c-0.2-0.1-0.4-0.4-0.5-1l-1,0.2l0.1-0.3
		c0-0.1-0.1-0.2-0.2-0.3c-0.2-0.1-0.7-0.3-1.5-0.4c-0.8-0.1-1.3-0.1-1.6,0.1c-0.1-0.6-0.2-1-0.6-1.3c-0.1-0.1-0.3-0.1-0.4-0.1
		c-0.2,0-0.3,0.1-0.4,0.1c-0.1-0.1-0.2-0.6-0.1-1.3c0.1-0.7-0.1-1.3-0.6-1.7l-0.4,0.5c0,0.1,0.1,0.3,0.4,0.5
		c-0.6,0.2-1.2,0.1-1.8-0.1c0.4-0.7,0.4-1.2,0-1.5c-0.1-0.1-0.3-0.2-0.6-0.2c-0.3-0.1-0.5-0.1-0.7-0.2c0.2-0.1,0.5-0.2,1-0.3
		c0.5-0.1,0.9-0.2,1.2-0.3c-0.1,0-0.1-0.2-0.2-0.5c-0.3,0.1-0.5,0.1-0.6,0.2c0.1-0.1,0.3-0.6,0.6-1.3c0,0,0.2,0.3,0.5,1
		c0.2,0.2,0.5,0.1,0.7-0.2c0.1-0.2,0.4-0.9,0.8-2c0.4-1.2,0.7-2,0.7-2.3c0,0.1,0,0.7-0.1,1.7c0.2,0,0.6-0.1,1.3-0.5
		c0.7-0.3,1.1-0.6,1.2-0.8c0.2-0.3,0.3-0.6,0.2-1.1c-0.1,0-0.2,0-0.3,0c-0.2,0-0.3,0.1-0.3,0.2l-0.2-1.9c0,0.2,0.1,0.4,0.3,0.6
		c0.2,0.3,0.4,0.5,0.4,0.5c0.7-0.3,1.4-0.9,1.8-1.9c0.1,0.2,0.3,0.3,0.5,0.4c0.5,0.4,1.2,0.2,2-0.7c-0.1-0.3-0.4-0.4-1.1-0.5
		l0.9-1.2c0,0.2,0,0.4,0,0.7c0.4,0,0.8-0.1,1.3-0.4l0.8,0.6c0.2-0.2,0.3-0.6,0.2-1c-0.1-0.3-0.2-0.5-0.3-0.6
		c-0.1-0.1-0.4-0.1-0.7-0.1c-0.1-0.1,0-0.5,0.1-0.9c0.1-0.6,0.1-1,0.1-1.1c0,0.6,0.2,1.2,0.4,1.6c0.1,0,0.2-0.1,0.4-0.4
		c0.1-0.1,0.3-0.6,0.6-1.5c0.3-0.9,0.5-1.4,0.6-1.5c0.5-0.7,1-0.9,1.5-0.6c-0.2-0.1-0.5,0-0.9,0.4c0,0.1,0.2,0.4,0.7,0.7
		c-0.1,0.3-0.4,0.7-1,1.1c0,0.1,0,0.1,0.1,0.2c0,0.1,0.1,0.2,0.1,0.2c0.7-0.3,1.4-0.8,2-1.7c0.5-0.6,0.8-1.3,1-2
		c0.1,0,0.3,0.3,0.6,0.8c0.5-0.1,0.8-0.3,1-0.5c0.1-0.2,0.2-0.4,0.3-0.7c0.1,0.1,0.1,0.4,0.2,0.9c1.3-0.4,2.3-0.7,2.9-1
		c0.1-0.2-0.3,0.2-1.2,1.1c1.1,0.3,1.8,0.3,2.3,0c-1,1.3-2.3,2.9-3.9,4.8c-1.5,1.7-2.4,2.9-2.8,3.3c-0.4,0.5-0.6,0.9-0.7,1.2
		l-2.2,2.9c-0.1,0.1-0.4,0.3-0.9,0.4c-0.5,0.1-0.9,0.1-1.1,0.1c0.2,0.6,0.1,1-0.1,1.3c-0.2,0.3-1,0.8-2.5,1.5
		c-0.1,0.4,0,0.7,0.2,0.8c-0.6,0.6-1.3,1.1-2.2,1.6c0,0.4,0.1,0.7,0.2,0.7c-0.2-0.1,1.2,0.5,4,1.9c2.8,1.4,5.1,2.8,7,4.2
		C462,250.7,462.7,251.4,463.1,252.1 M449.5,239.1c0-0.2-0.1-0.5-0.2-0.9c-0.1-0.4-0.2-0.7-0.2-0.9c-0.1,0-0.5,0.6-1.2,1.5
		c0.1,0.1,0.4,0.2,0.7,0.2C449.2,239.1,449.5,239.1,449.5,239.1 M455.3,234.2c0.1-0.6,0.1-1-0.2-1.1l-0.8,1.2
		C454.5,234.2,454.9,234.2,455.3,234.2 M460.2,251.7c0.1-0.2,0.2-0.4,0.1-0.8l-0.6-0.5c-0.2,0.3-0.3,0.6-0.3,0.9
		c0,0,0.2,0.1,0.4,0.2C460.1,251.6,460.2,251.6,460.2,251.7"/>
	<path class="st7" d="M213.5,343.5c0,0,47.9-22.2,57.3-28.6l3.3,6.3c0,0-26.2,14.9-34.1,15.9c0,0,28.4-3.9,38.8-8.8l5.3,7.7
		l-57,13.1L213.5,343.5z"/>
	<path class="st0" d="M186.1,411.3l60.1-2.4l2.7-3.5l-2.6-19.4c0,0-5.5-16.8-11.2-23.4l4.2-3.5c0,0-17.4-22.7-53-16.5
		c0,0-48.4,10.8-44.2,62.3c0,0-2.7,45.5,53.2,52.8c0,0,36.2,1.1,44.6-10.8l2-5.1v-23.4l-12.2-6C229.7,412.6,200.5,429.2,186.1,411.3
		"/>
	<path class="st3" d="M200.7,449.6c-15.9,0-28.6-4.7-37.6-13.9c-9-9.2-13.6-21.6-13.6-36.9c0-15.4,4.7-28.1,13.9-37.6
		c8.9-9.2,20.2-13.7,34.6-13.7c14.5,0,25.4,4.8,33.4,14.8c8.5,10.5,12.3,22.9,12.2,39.9l0,2.2h-67.7c1.3,6.2,3.8,13.2,9.7,17.6
		c3.9,2.9,9.2,4.5,14.9,4.5c4.7,0,9.9-0.7,15.6-2.2c5.7-1.5,8.9-2.4,13.4-4.9l3.3-1.8v23.2l-0.9,0.7c-3.5,2.6-8.5,4.6-15.2,6
		C210,448.8,204.7,449.6,200.7,449.6 M220.2,391.7c-1.5-6.6-4.2-11.7-7.9-15.2c-4.1-3.9-9.2-5.8-15.4-5.8c-7.2,0-12.5,2-16.1,6.2
		c-3.2,3.8-5.4,8.7-6.4,14.8H220.2z"/>
	<path class="st1" d="M197.9,349.7c13.3,0,23.9,4.2,31.7,14c7.9,9.8,11.8,21.5,11.7,38.5h-68.2c1.3,7.4,3.8,16.2,11.1,21.5
		c4.3,3.2,10.1,4.9,16.2,4.9c4.9,0,10.2-0.8,16.1-2.3c5.9-1.5,9.2-2.5,13.9-5.1v18.4c-3.2,2.4-8,4.3-14.4,5.6
		c-6.4,1.4-11.6,2.1-15.4,2.1c-15.4,0-27.4-4.4-36.1-13.2c-8.6-8.8-13-20.6-13-35.4c0-14.9,4.4-26.9,13.3-36
		C173.7,353.6,184.7,349.7,197.9,349.7 M172,393.9h50.9c-1.5-8.4-4.5-14.7-9-19c-4.5-4.3-10.2-6.4-16.9-6.4
		c-7.8,0-13.7,2.3-17.7,6.9C175.2,380,172.8,386.2,172,393.9 M197.9,345.3c-15,0-26.9,4.7-36.2,14.4c-9.6,10-14.5,23.1-14.5,39.1
		c0,15.9,4.8,28.8,14.2,38.5c9.5,9.6,22.7,14.5,39.2,14.5c4.2,0,9.6-0.7,16.4-2.2c7.1-1.5,12.4-3.6,16.1-6.4l1.8-1.3v-2.2v-18.4
		v-7.4l-6.5,3.6c-4.3,2.4-7.3,3.3-12.9,4.7c-5.5,1.4-10.6,2.1-15.1,2.1c-5.2,0-10.1-1.5-13.6-4c-4.5-3.4-6.9-8.6-8.2-13.7h62.8h4.4
		l0-4.4c0-17.6-3.9-30.3-12.7-41.3C224.6,350.4,213.1,345.3,197.9,345.3 M177.2,389.5c1.1-4.5,2.9-8.3,5.4-11.2
		c3.1-3.6,7.8-5.4,14.4-5.4c5.6,0,10.1,1.7,13.9,5.2c2.9,2.7,5.1,6.5,6.5,11.4H177.2z"/>
	<path class="st1" d="M176.8,391.5h43.4c0,0,0-4-2.3-7.7c-2.3-3.8-12.4-11.7-15.1-11.7c-2.7,0-13.2-1.9-17,2.3s-9.2,11.9-9.2,11.9
		L176.8,391.5z"/>
	<path class="st14" d="M176.8,391.5h43.4c0,0,0-4-2.3-7.7c-2.3-3.8-12.4-11.7-15.1-11.7c-2.7,0-13.2-1.9-17,2.3s-9.2,11.9-9.2,11.9
		L176.8,391.5z"/>
	<path class="st0" d="M195,389.9h22.7c0,0-1.6-15.9-20.8-15.9c-13.7-0.9-17.9,13.7-17.9,13.7l3.1,0.7l0.9-1.6l2.6,0.9
		c0,0,9-15.9,25.4-1.6L195,389.9z"/>
</g>
</svg>
